<svg width="41" height="39" viewBox="0 0 41 39" fill="none" xmlns="http://www.w3.org/2000/svg">
<path d="M36.3443 29.322C39.5921 23.3677 38.8253 17.481 38.0359 15.282L37.4438 19.5955C37.9851 23.2493 35.9992 27.2814 34.9385 28.8408C33.1373 32.1772 29.0919 34.7243 27.2944 35.5808C22.0971 38.0843 15.5997 36.2292 13.0007 34.9887C8.94091 33.2295 5.21946 27.7714 3.86621 25.2622C4.27219 27.7657 7.08019 31.5492 8.43344 33.128C12.8992 37.4584 19.2556 38.2734 21.8756 38.1395C29.4491 37.6153 34.677 32.0428 36.3443 29.322Z" fill="#0A0C0D"/>
<path d="M7.65661 10.8839C13.8139 5.13261 19.3566 10.1791 21.3583 13.4213L23.3882 11.3914C27.3126 8.07593 31.9024 8.14923 33.7068 8.60032C37.4959 10.0889 38.1612 14.8591 38.0203 17.0582C37.7496 21.7269 33.8477 26.5027 31.9306 28.3071C29.1564 31.2842 23.9521 35.0733 21.6966 36.5958C19.0578 35.3102 12.8159 29.181 10.0248 26.2772C3.59684 19.1049 5.76769 13.0266 7.65661 10.8839Z" fill="#D63F30"/>
<path d="M33.6071 5.95153L34.8711 13.3291L33.6954 14.3877L30.9458 8.34772L27.7949 11.1848L28.4034 13.8303L27.5216 14.6242L26.1049 12.068L25.7276 11.4495L25.1746 11.0531L22.7578 9.33344L23.6396 8.53947L26.2075 9.4207L29.3585 6.58359L23.6384 3.21824L24.8142 2.15962L32.0191 4.18793L35.2212 1.30477C35.4551 1.0942 35.763 0.985157 36.0773 1.00163C36.3916 1.0181 36.6864 1.15874 36.897 1.39261C37.1076 1.62647 37.2166 1.93441 37.2002 2.24868C37.1837 2.56294 37.043 2.8578 36.8092 3.06837L33.6071 5.95153Z" fill="#0A0C0D"/>
<path d="M25.7276 11.4495L25.1746 11.0531L24.3787 11.9761C24.2106 12.171 24.2214 12.4625 24.4034 12.6444C24.5619 12.803 24.8076 12.8341 25.0007 12.7201L26.1049 12.068L25.7276 11.4495Z" fill="#0A0C0D"/>
<path d="M9.4485 22.6404C13.5083 20.8135 20.6128 15.7895 23.6577 13.5059C20.9512 17.6333 13.3391 21.992 9.87139 23.6553C3.8494 26.0912 2.11837 22.8096 2.0056 20.8643C1.80262 11.9328 7.16488 6.93701 9.87139 5.55556C15.2167 2.24009 20.6128 3.10279 22.6427 3.94857L19.4287 4.11773C11.1739 4.18539 6.46007 9.72809 5.135 12.491C2.15785 18.3776 3.16151 21.5973 4.03549 22.4712C5.4564 23.8922 8.23621 23.1761 9.4485 22.6404Z" fill="#0A0C0D"/>
</svg>
