<svg width="28" height="27" viewBox="0 0 28 27" fill="none" xmlns="http://www.w3.org/2000/svg">
<g clip-path="url(#clip0_11053_558)">
<path d="M18.9786 4.46459V4.48694C18.9786 4.48694 18.9897 4.50929 18.9953 4.52606C18.9953 4.55958 19.04 4.57635 19.0289 4.61546C18.9804 4.62664 18.9692 4.65644 18.9953 4.70487C18.9953 4.70487 19.0344 4.70487 19.0568 4.70487C19.0568 4.69928 19.068 4.6881 19.1574 4.76074C19.1741 4.76074 19.1965 4.76074 19.2132 4.76074C19.2021 4.73467 19.1965 4.71418 19.1965 4.69928C19.1965 4.69928 19.3194 4.81103 19.3082 4.86132C19.2356 4.86691 19.2747 4.90044 19.3138 4.94514C19.3641 4.94514 19.4088 4.94514 19.4535 4.94514V4.91161C19.5485 4.9619 19.5709 5.07924 19.6659 5.12395C19.677 5.16865 19.6863 5.19659 19.6938 5.20776C19.7329 5.25246 19.7385 5.26923 19.7217 5.29158H19.6379C19.61 5.2804 19.5876 5.25805 19.5541 5.25805H19.5373H19.515C19.515 5.25805 19.5113 5.26923 19.5038 5.29158V5.32511C19.5038 5.32511 19.4703 5.32511 19.4479 5.32511V5.35863C19.5094 5.39216 19.6212 5.35863 19.6267 5.44804C19.6156 5.44804 19.61 5.44804 19.5932 5.44804C19.5932 5.44804 19.5876 5.4648 19.5765 5.49833C19.5765 5.49833 19.5653 5.5095 19.5373 5.5095H19.5317C19.5597 5.64919 19.6212 5.61008 19.6491 5.59332C19.6603 5.58773 19.8838 5.62684 19.8838 5.62684C19.895 5.62684 19.9285 5.67713 19.9005 5.6939C19.8558 5.72742 19.8055 5.6939 19.7608 5.72184C19.7608 5.73301 19.7608 5.74419 19.7608 5.75536C19.7608 5.75536 19.7329 5.75909 19.677 5.76654C19.6212 5.77399 19.6305 5.80938 19.705 5.87271C19.677 5.90623 19.6659 5.91182 19.6323 5.92299C19.6659 5.94162 19.7068 5.94162 19.7553 5.92299L19.7832 5.90064V5.87271C19.7832 5.87271 19.8279 5.89506 19.8558 5.90064C19.8838 5.90064 19.9173 5.90064 19.9452 5.90064C19.9173 5.828 19.9173 5.82241 19.9285 5.81124C20.1576 5.85035 20.152 5.81683 20.1464 5.77213H20.152C20.2079 5.77213 20.2414 5.82242 20.2917 5.828H20.3084C20.3476 5.81124 20.3811 5.83918 20.4202 5.82242C20.437 5.81683 20.437 5.79448 20.4314 5.77213C20.4537 5.76095 20.4873 5.77771 20.5096 5.75536C20.4984 5.70507 20.4481 5.67713 20.4258 5.63802L20.4146 5.61567C20.4146 5.61567 20.409 5.59891 20.4146 5.58773C20.4314 5.58773 20.4481 5.58773 20.4649 5.58773C20.4649 5.58773 20.4593 5.54862 20.4481 5.52068C20.4649 5.52068 20.4873 5.52068 20.504 5.52068C20.4928 5.49833 20.4817 5.47598 20.4705 5.45362C20.409 5.41451 20.3699 5.34746 20.3084 5.30834L20.2861 5.31952C20.2861 5.31952 20.2973 5.33628 20.2861 5.39775C20.2861 5.39775 20.2377 5.33628 20.1408 5.21335C20.1408 5.21335 20.0849 5.21335 20.057 5.21335C20.0291 5.13512 20.0067 5.09042 20.0067 5.09042C19.9732 5.04572 19.9117 5.03454 19.8782 5.00102L19.8447 4.98984C19.8223 4.94514 19.7608 4.93396 19.7385 4.88367C19.7273 4.85015 19.6323 4.75516 19.5765 4.75516C19.4815 4.75516 19.4032 4.72163 19.4479 4.64899C19.4479 4.64899 19.4461 4.63781 19.4423 4.61546C19.4647 4.61546 19.4815 4.61546 19.4926 4.61546C19.4926 4.61546 19.4815 4.59311 19.4759 4.57635C19.4535 4.54282 19.4982 4.51488 19.487 4.48136C19.4647 4.44224 19.4423 4.39754 19.42 4.35843C19.3362 4.35843 19.2468 4.35284 19.163 4.34166C19.163 4.34166 19.1667 4.32862 19.1741 4.30255C19.1741 4.27461 19.1462 4.25785 19.1462 4.22991C19.1462 4.22991 19.1741 4.17962 19.1741 4.16844C19.1462 4.14609 19.1462 4.1405 19.1238 4.1405H19.0959C19.0959 4.1405 19.0736 4.1405 19.0512 4.1405C19.04 4.1405 19.0289 4.15168 18.9394 4.1405H18.9339C18.9506 4.17962 18.9562 4.22432 18.9618 4.26343C18.973 4.30255 19.0009 4.33049 19.0121 4.3696C18.9618 4.3696 18.9227 4.34166 18.8724 4.33607C18.7998 4.3249 18.8836 4.43665 18.8836 4.44224C18.9115 4.47577 18.9618 4.459 18.9897 4.49253L18.9786 4.46459Z" fill="black"/>
<path d="M18.6937 4.297L18.7273 4.31376L18.7496 4.297C18.7496 4.297 18.7496 4.297 18.7496 4.27465V4.25789V4.24112H18.7552C18.7552 4.24112 18.7999 4.24112 18.7999 4.22995V4.21877L18.7887 4.20201V4.17407V4.16848C18.7887 4.15172 18.7831 4.13495 18.7776 4.12378L18.7384 4.13495C18.7273 4.14613 18.7273 4.16289 18.7105 4.17407H18.6881V4.18524V4.21318C18.6881 4.21318 18.6714 4.24112 18.6714 4.26347C18.6714 4.28024 18.6826 4.29141 18.6881 4.30259L18.6937 4.297Z" fill="black"/>
<path d="M10.748 1.29639L10.653 1.36903L10.5916 1.4249H10.7312L10.8374 1.38579L10.9603 1.35785V1.29639H10.8374C10.8095 1.29639 10.7759 1.29639 10.748 1.29639Z" fill="black"/>
<path d="M18.8333 5.23573C18.8445 5.26926 18.8556 5.30278 18.8724 5.3419C18.8501 5.3419 18.8221 5.3419 18.7998 5.3419C18.7718 5.39219 18.8221 5.4313 18.8109 5.476C18.783 5.48718 18.7718 5.49836 18.7998 5.54306C18.8165 5.57658 18.878 5.59894 18.878 5.59894C18.9059 5.60452 18.9227 5.57658 18.9506 5.57658C18.9506 5.57658 18.9842 5.57658 19.0233 5.59894C19.0512 5.59894 19.0736 5.55982 19.0792 5.55423C19.0792 5.55423 19.0773 5.5412 19.0736 5.51512C19.0736 5.51512 19.0903 5.49836 19.0959 5.48718C19.1853 5.48718 19.2691 5.49277 19.353 5.49836C19.3474 5.48159 19.3418 5.46483 19.3362 5.45365C19.325 5.42572 19.2915 5.40895 19.2859 5.38101C19.3045 5.36611 19.3138 5.35121 19.3138 5.33631C19.3138 5.33631 19.2915 5.25249 19.2356 5.14074C19.2244 5.11839 19.2188 5.09604 19.2077 5.07369C19.2635 5.07369 19.2691 5.04575 19.2636 5.0234C19.2524 4.9787 19.2077 4.96193 19.1797 4.92841C19.1686 4.90605 19.163 4.8837 19.1462 4.86694C19.1462 4.86694 19.135 4.85576 19.1071 4.839C19.0959 4.839 19.0847 4.839 19.0736 4.839C19.0624 4.83341 19.0512 4.82224 19.04 4.81665H19.0233C19.0233 4.81665 18.9674 4.83341 18.9618 4.839V4.87253L18.9395 4.88929C18.9059 4.86694 18.878 4.839 18.8389 4.82224C18.8221 4.81665 18.7942 4.82224 18.7718 4.82224C18.7942 4.87253 18.8054 4.93399 18.8333 4.98428H18.8221H18.8165L18.7942 5.00105C18.7942 5.00105 18.7718 5.00105 18.7607 5.00105H18.7495C18.7495 5.00105 18.7215 5.02898 18.7048 5.01781C18.6824 5.00291 18.6619 4.99732 18.6433 5.00105C18.6712 5.07927 18.6992 5.1575 18.7271 5.23573C18.7569 5.23946 18.7905 5.23946 18.8277 5.23573H18.8333Z" fill="black"/>
<path d="M20.8673 4.26349L20.8785 4.28025V4.31378C20.8785 4.31378 20.9344 4.38083 20.9735 4.40318C21.0256 4.43298 21.0592 4.4572 21.0741 4.47582L21.0964 4.50376L21.1188 4.5317C21.1746 4.60434 21.2305 4.64346 21.2696 4.66022C21.2752 4.66022 21.2976 4.67698 21.3199 4.70492C21.3367 4.72727 21.3367 4.7608 21.3479 4.78315L21.359 4.79991C21.359 4.79991 21.3926 4.84461 21.4093 4.86138C21.4596 4.86138 21.5155 4.86697 21.5658 4.87255C21.5248 4.79805 21.5062 4.75149 21.5099 4.73286C21.5099 4.73286 21.5099 4.73286 21.5323 4.73286H21.5546C21.5546 4.73286 21.5937 4.76639 21.6161 4.7608C21.6217 4.74404 21.6049 4.72727 21.6161 4.7161C21.6161 4.71051 21.6272 4.7161 21.6552 4.7161C21.6384 4.68257 21.6161 4.65463 21.5937 4.6211C21.6217 4.6211 21.6496 4.6211 21.6775 4.6211C21.6552 4.58758 21.6366 4.5615 21.6217 4.54288C21.6217 4.54288 21.5937 4.54288 21.5825 4.54288C21.5434 4.55405 21.5267 4.51494 21.4987 4.50935C21.4931 4.49259 21.4876 4.47582 21.482 4.45906C21.454 4.37524 21.3814 4.31937 21.3534 4.23555H21.359V4.20202H21.3702C21.1746 4.17967 20.9623 4.1685 20.7444 4.15173C20.7779 4.19644 20.8338 4.2132 20.8673 4.2579V4.26349Z" fill="black"/>
<path d="M20.1746 4.15733C20.1746 4.15733 20.1969 4.1741 20.2081 4.18527L20.2249 4.20762C20.2733 4.20762 20.2994 4.20762 20.3031 4.20762L20.3198 4.22439C20.3198 4.22439 20.3254 4.22997 20.3813 4.26909L20.4148 4.25791C20.4428 4.26909 20.4707 4.29144 20.5042 4.28585C20.5042 4.28585 20.5378 4.28026 20.5322 4.25233V4.23556C20.5545 4.23556 20.5676 4.23556 20.5713 4.23556V4.21321C20.5713 4.21321 20.5713 4.19086 20.5713 4.17968V4.15175C20.4428 4.14616 20.3143 4.13498 20.1746 4.12939C20.1746 4.12939 20.1746 4.15175 20.1801 4.15733H20.1746Z" fill="black"/>
<path d="M8.50164 3.21849C8.50164 3.21849 8.49047 3.22408 8.45694 3.22967C8.44576 3.22967 8.42341 3.24084 8.34518 3.27996C8.32842 3.29113 8.30607 3.29672 8.28931 3.30789C8.29489 3.31907 8.28931 3.33583 8.30607 3.34701C8.30607 3.34701 8.3396 3.34701 8.35077 3.34701C8.429 3.32466 8.49605 3.27437 8.53517 3.24643H8.54634L8.57428 3.19055C8.55193 3.20173 8.52958 3.21849 8.50723 3.22408L8.50164 3.21849Z" fill="black"/>
<path d="M9.9434 2.33004L10.0552 2.25181L10.0887 2.17358C9.99183 2.18103 9.93968 2.18476 9.93223 2.18476C9.93223 2.18476 9.87635 2.2127 9.77577 2.27416L9.75342 2.3468L9.83165 2.35798L9.9434 2.33563V2.33004Z" fill="black"/>
<path d="M6.45088 12.9245C6.45088 12.9245 6.40618 12.9189 6.38941 12.9077C6.36706 12.8966 6.3503 12.8742 6.32795 12.863H6.3056C6.23296 12.863 6.1659 12.863 6.09326 12.863C6.10444 12.891 6.11561 12.9189 6.13238 12.9469L6.14914 12.9692C6.14914 12.9692 6.1659 12.9804 6.20502 12.9692C6.23854 12.9636 6.3056 13.0139 6.3056 13.0139C6.31677 13.0251 6.31677 13.0363 6.31677 13.0698C6.31677 13.0921 6.31677 13.0921 6.31677 13.1089C6.33912 13.1033 6.36706 13.1201 6.38941 13.1089C6.38941 13.1089 6.41176 13.081 6.45647 13.0251V13.0083C6.45647 12.9804 6.47882 12.9469 6.45088 12.9189V12.9245Z" fill="black"/>
<path d="M8.47376 12.8406C8.45141 12.7959 8.47935 12.7512 8.47376 12.7065C8.3173 12.7456 8.31171 12.7456 8.2279 12.7512C8.19996 12.7512 8.17202 12.7512 8.14967 12.7512C8.10497 12.74 8.07144 12.7121 8.03233 12.7065C8.02115 12.7065 8.00439 12.7065 7.99321 12.7065C7.95969 12.7177 7.94851 12.7624 7.9094 12.7736H7.77529C7.71941 12.7736 7.70265 12.7121 7.65236 12.7009C7.59089 12.6897 7.55737 12.6171 7.49032 12.6115L7.21652 12.6003C7.18671 12.6003 7.13642 12.6097 7.06565 12.6283C7.06565 12.7177 7.06565 12.8127 7.06006 12.9021C7.1327 12.9971 7.18299 13.053 7.21093 13.0585C7.23328 13.0585 7.26122 13.0585 7.29474 13.0585C7.33945 13.0585 7.38229 13.0343 7.42326 12.9859C7.4512 12.9524 7.54619 12.9356 7.54619 12.9356C7.59089 12.9356 7.6356 12.958 7.6803 12.958C7.725 12.958 7.7697 12.9356 7.8144 12.9356C7.9541 12.9356 8.09938 12.9021 8.12173 12.8965C8.15526 12.8797 8.16643 12.8797 8.19996 12.8965C8.23349 12.9133 8.37318 12.93 8.40112 12.93C8.42906 12.93 8.457 12.93 8.48493 12.93C8.51287 12.93 8.53522 12.9021 8.55758 12.8909H8.56875C8.5464 12.863 8.5017 12.8741 8.49052 12.8406H8.47376Z" fill="black"/>
<path d="M11.3683 6.05151C11.3683 6.05151 11.2677 5.99004 11.2453 5.95093C11.2342 5.92858 11.2286 5.9174 11.2062 5.91182C11.1615 5.89505 11.1112 5.90623 11.0609 5.89505C11.033 5.88946 11.0162 5.86711 10.9939 5.86153C11.0386 5.77585 11.087 5.72369 11.1392 5.70507C11.1392 5.70507 11.2062 5.63243 11.1783 5.58773C11.1783 5.58773 11.1727 5.57655 11.1615 5.5542C11.1615 5.5542 11.128 5.5542 11.1112 5.5542C11.1056 5.5542 11.033 5.57096 11.0162 5.59331C10.9883 5.62125 10.9995 5.66037 10.9883 5.69389C10.9659 5.74605 10.9436 5.78143 10.9212 5.80006C10.9212 5.80006 10.5413 6.14091 10.5301 6.15768C10.5189 6.17444 10.4966 6.20238 10.4854 6.25826C10.4798 6.28619 10.4854 6.31413 10.4854 6.34207C10.6642 6.34207 10.843 6.34207 11.0274 6.34207C11.0721 6.34207 11.0945 6.35325 11.1392 6.40913C11.2174 6.5097 11.2565 6.53206 11.3124 6.55441C11.3236 6.54323 11.3291 6.53764 11.3571 6.52647C11.3738 6.52088 11.4185 6.50412 11.4185 6.34207C11.4185 6.27874 11.4428 6.21728 11.4912 6.15768L11.508 6.14091C11.508 6.14091 11.4968 6.09062 11.4968 6.06827C11.4409 6.06827 11.4036 6.06268 11.385 6.05151H11.3683Z" fill="black"/>
<path d="M6.52924 12.2148C6.52924 12.2148 6.47895 12.2148 6.45101 12.2148C6.37278 12.2148 6.29455 12.254 6.21074 12.2148C6.15486 12.1869 6.14368 12.1254 6.09898 12.0863C6.03752 12.0304 5.95929 12.0025 5.89782 11.9578C5.84567 11.9243 5.81587 11.8945 5.80842 11.8684C5.80842 11.8684 5.79166 11.8181 5.74695 11.8181C5.69666 11.8181 5.64079 11.8293 5.5905 11.8293C5.56815 11.8293 5.54393 11.8423 5.51786 11.8684C5.48433 11.8963 5.45639 11.8684 5.42286 11.8628C5.37257 11.8628 5.32787 11.8628 5.27199 11.8628C5.18632 11.8628 5.13789 11.8684 5.12671 11.8796C4.97584 12.0305 5.18818 12.2875 5.37257 12.1646C5.41728 12.1366 5.43963 12.0807 5.4955 12.0584C5.50109 12.0584 5.57932 12.0584 5.62402 12.0584C5.62402 12.0584 5.7693 12.1143 5.78048 12.2037C5.78048 12.226 5.78048 12.2428 5.80283 12.254C5.92576 12.321 5.94252 12.3154 5.98164 12.3098C6.03193 12.2987 6.0431 12.321 6.06546 12.3601C6.07663 12.3825 6.13251 12.4886 6.24985 12.4942C6.43425 12.4942 6.62423 12.4831 6.81421 12.4831C6.78069 12.416 6.64658 12.226 6.52924 12.2037V12.2148Z" fill="black"/>
<path d="M17.0957 2.72686C17.0659 2.71569 17.0305 2.70637 16.9895 2.69892C16.9634 2.63187 16.9374 2.58158 16.9113 2.54805C16.8722 2.54805 16.8387 2.54805 16.7995 2.54805C16.7735 2.54805 16.7306 2.57785 16.671 2.63746C16.6207 2.63746 16.5704 2.60952 16.5146 2.60952C16.4252 2.60952 16.3972 2.63187 16.386 2.64304C16.3693 2.65981 16.3581 2.65981 16.3358 2.65981C16.3022 2.65981 16.2743 2.65981 16.2408 2.65981C16.2352 2.64304 16.2296 2.62628 16.2184 2.60952C16.2128 2.59275 16.2072 2.57599 16.1961 2.56482C16.1793 2.54247 16.1569 2.53688 16.1402 2.51453L16.0955 2.5257C16.0955 2.5257 16.1067 2.55923 16.1178 2.5704C16.088 2.55923 16.0266 2.55364 15.9334 2.55364C15.9334 2.55364 15.7937 2.58158 15.8943 2.68216C15.9446 2.68216 15.9837 2.64304 16.0396 2.6654L16.1458 2.72686C16.1458 2.72686 16.1569 2.76597 16.1681 2.78833C16.1178 2.77715 16.0228 2.76039 15.9111 2.78274C15.9223 2.80509 15.9446 2.83303 15.9558 2.85538C15.9744 2.84793 15.9875 2.8442 15.9949 2.8442C16.0284 2.8442 16.062 2.8442 16.0955 2.8442L16.1122 2.85538C16.1234 2.88891 16.1346 2.92243 16.1458 2.95596L16.1905 3.00625C16.1905 3.00625 16.224 3.00625 16.2408 3.00625C16.2911 3.00625 16.3413 2.99507 16.3916 2.99507C16.4084 2.99507 16.4252 2.99507 16.4475 2.99507C16.5202 2.99507 16.5593 3.05654 16.6207 3.0733C16.6207 3.0733 16.8163 3.118 16.8163 3.01742C16.8163 2.99135 16.8256 2.96713 16.8442 2.94478C16.8442 2.94478 16.8945 2.96155 16.9113 2.93361C16.9299 2.90008 16.9467 2.87959 16.9616 2.87214C16.9765 2.86469 17.0528 2.86283 17.1907 2.86655C17.1739 2.83303 17.1516 2.7995 17.1348 2.76597C17.118 2.74921 17.1069 2.72686 17.0845 2.71569L17.0957 2.72686Z" fill="black"/>
<path d="M9.94334 5.90066C9.90423 5.90066 9.89864 5.90066 9.88746 5.90066C9.83158 5.8783 9.82041 5.84478 9.81482 5.83919C9.80365 5.81125 9.79247 5.80566 9.77012 5.80566C9.75336 5.80566 9.73659 5.81125 9.71983 5.80566C9.69748 5.81684 9.66395 5.82801 9.6416 5.83919C9.65836 5.85037 9.6863 5.85595 9.70307 5.87272C9.71983 5.88948 9.71983 5.91742 9.73101 5.93418L9.74218 5.94536C9.74218 5.94536 9.77571 5.9733 9.79247 5.99006C9.80923 6.00124 9.81482 6.02359 9.83159 6.03476C9.84276 6.04594 9.84835 6.05152 9.86511 6.05711C9.88746 6.0627 9.9154 6.07388 10.0327 5.93977C10.0327 5.93977 9.99922 5.91183 9.97687 5.90066C9.96569 5.90066 9.94334 5.90066 9.93775 5.90066H9.94334Z" fill="black"/>
<path d="M8.6247 3.30798L8.56323 3.44209C8.60235 3.44209 8.64146 3.44209 8.68058 3.44209L8.74763 3.41415C8.74763 3.41415 8.77557 3.38062 8.78674 3.36386C8.80909 3.33033 8.82586 3.30239 8.84262 3.26887L8.7588 3.25769L8.63029 3.31357L8.6247 3.30798Z" fill="black"/>
<path d="M14 0C6.55712 0 0.5 6.05712 0.5 13.5C0.5 20.9429 6.55712 27 14 27C21.4429 27 27.5 20.9429 27.5 13.5C27.5 6.05712 21.4429 0 14 0ZM9.64156 1.68191H9.69185L9.63038 1.74338L9.58568 1.7322L9.4851 1.76014L9.43481 1.83278C9.46275 1.83278 9.49069 1.83278 9.51863 1.83278L9.58568 1.81043V1.85513L9.63597 1.89425L9.53539 1.92219L9.44598 1.99483L9.43481 2.04512L9.18895 2.1904L9.03249 2.29656L8.88162 2.38038L8.86486 2.34685L8.96544 2.22392L9.09396 2.1457L9.13866 2.03394L8.94868 2.12334L9.05484 1.96689L9.04367 1.95012L9.16101 1.8719L9.27277 1.78808H9.24483L9.35099 1.70985L9.3957 1.64839C9.61362 1.56457 9.83713 1.48075 10.0606 1.40811L9.84271 1.51428L9.59685 1.67074L9.64714 1.6875L9.64156 1.68191ZM8.60223 2.1457L8.75869 2.07864C8.71399 2.11217 8.67488 2.14011 8.63017 2.17363L8.37314 2.27421L8.2055 2.41949L8.22227 2.34685L8.37314 2.24627C8.37314 2.24627 8.33961 2.24627 8.32285 2.24627L8.44019 2.15687C8.44019 2.15687 8.47372 2.15687 8.48489 2.15687L8.65252 2.02835V1.9613C8.75869 1.9166 8.85927 1.8719 8.95985 1.82719L8.87603 1.87748L8.82016 1.95571L8.80339 2.006L8.67488 2.08423L8.63017 2.06747L8.52959 2.15687L8.60223 2.1457ZM8.63576 1.97248L8.50724 2.0507L8.3899 2.09541L8.3452 2.1904L8.21668 2.25186L8.09375 2.33009L7.89818 2.35244C8.13845 2.21834 8.38431 2.08982 8.63576 1.97248ZM14.0056 26.2289C13.2289 26.2289 12.4634 26.1562 11.7202 26.0221C11.709 26.0221 11.6923 26.011 11.6699 26.0054C11.6699 26.0054 11.5805 25.9383 11.4743 25.8545C11.4688 25.8489 11.4632 25.8433 11.4296 25.8154C11.3849 25.7707 11.3346 25.7372 11.2899 25.6925C11.2844 25.6869 11.2788 25.6813 11.2452 25.6534C11.2285 25.631 11.2061 25.6087 11.1894 25.5863C11.1782 25.5695 11.167 25.5528 11.1502 25.536C11.1782 25.536 11.2061 25.536 11.2285 25.5192C11.2061 25.4913 11.1726 25.4522 11.1558 25.4187C11.1726 25.4075 11.1894 25.3907 11.2061 25.3796C11.1894 25.3404 11.1726 25.2901 11.1558 25.251C11.167 25.2343 11.1782 25.2175 11.1894 25.2007C11.1782 25.184 11.167 25.1728 11.1167 25.1505C11.1 25.1505 11.0776 25.1449 11.0553 25.1393C10.9286 25.0536 10.856 25.0014 10.8373 24.9828C10.8373 24.9828 10.8262 24.9661 10.8206 24.9158C10.8317 24.899 10.8485 24.8822 10.8597 24.8655C10.8988 24.8655 10.9435 24.8655 10.9826 24.8655C10.9547 24.8208 10.9267 24.7761 10.9044 24.6923C10.8988 24.6308 10.8709 24.5749 10.8764 24.5135C10.8932 24.5135 10.9212 24.5135 10.9435 24.519C10.9435 24.5023 10.9491 24.4799 10.9547 24.4576C10.9547 24.4464 10.9435 24.4408 10.9044 24.4073H10.8932C10.8932 24.4073 10.8541 24.4296 10.8373 24.4408C10.8113 24.4222 10.7721 24.3756 10.72 24.3011C10.72 24.3011 10.6921 24.2452 10.6753 24.2229C10.6921 24.2229 10.7032 24.2229 10.7256 24.2229C10.7647 24.2397 10.815 24.262 10.8485 24.2844C10.8988 24.2844 10.9491 24.2844 10.9994 24.2844C10.9882 24.2676 10.977 24.2452 10.9714 24.2341C10.9714 24.2229 10.9659 24.2173 10.9491 24.1726C10.9528 24.1279 10.9305 24.0739 10.882 24.0106C10.882 24.0106 10.8653 23.9659 10.8541 23.9491C10.8932 23.9491 10.9323 23.9491 10.9994 23.9435C11.0161 23.9435 11.0329 23.9435 11.0888 23.9435C11.1055 23.9379 11.1279 23.9267 11.1447 23.9212C11.1894 23.9212 11.2285 23.9212 11.2899 23.9212C11.3067 23.9212 11.3291 23.9267 11.3514 23.9323C11.3514 23.8262 11.4352 23.7535 11.4743 23.6641L11.4855 23.6082C11.4743 23.5803 11.4688 23.5468 11.4576 23.5188C11.4464 23.5188 11.4352 23.5188 11.3961 23.5132C11.3961 23.4965 11.3849 23.4741 11.3738 23.4294C11.3067 23.3456 11.1894 23.3177 11.1335 23.2227C11.1726 23.2227 11.2117 23.2227 11.2564 23.2227C11.6699 23.3177 11.7649 23.34 11.7984 23.1892C11.9046 22.6751 11.9996 22.6192 12.0387 22.6024C12.0499 22.636 12.0555 22.6863 12.0499 22.7198C12.0666 22.7198 12.0946 22.731 12.1113 22.731C12.1672 22.6527 12.251 22.4516 12.251 22.4516C12.2622 22.3398 12.4131 22.3398 12.4298 22.2337C12.4522 22.0772 12.279 21.9543 12.3516 21.7922C12.3516 21.7922 12.5863 21.5128 12.6981 21.4346C12.7595 21.4346 12.8154 21.4346 12.8936 21.4346C12.9272 21.4085 12.9719 21.3657 13.0277 21.3061C13.173 21.3061 13.3239 21.3061 13.4692 21.2949C13.4692 21.2614 13.4915 21.2111 13.5083 21.1832C13.5753 21.1496 13.6536 21.0155 13.6703 20.9429C13.7038 20.9261 13.7486 20.8982 13.7765 20.8702C13.7877 20.725 13.7933 20.7138 13.8491 20.6076C13.8752 20.5927 13.9087 20.4772 13.9497 20.2612C13.9497 20.2612 13.9497 20.2332 13.9721 20.1718C14.0335 20.0488 14.0391 19.965 14.0391 19.9259C14.0391 19.9091 14.0391 19.8868 14.0335 19.8309C14.0335 19.8142 14.0279 19.7918 14.0224 19.7695C14.0224 19.7415 14.0224 19.7136 14.0168 19.6465C14.0168 19.5683 14.0168 19.4901 14.0671 19.4007C14.0931 19.3932 14.1863 19.2852 14.3464 19.0766C14.4358 19.071 14.447 19.0542 14.5085 18.9872L14.799 18.5849C14.8512 18.488 14.8791 18.4135 14.8829 18.3613C14.8829 18.3613 14.8661 17.9255 14.6538 17.8305C14.5867 17.8305 14.5197 17.8305 14.4526 17.8305C14.2403 17.7672 14.1229 17.6722 14.1006 17.5455C13.9665 17.4599 13.851 17.43 13.7541 17.4561C13.6703 17.4561 13.5809 17.4561 13.4692 17.4561C13.2866 17.3816 13.1674 17.3555 13.1115 17.3779C13.1115 17.3779 13.1115 17.4282 13.1115 17.4505C13.0557 17.4841 13.0221 17.5064 12.8825 17.4338C12.8825 17.417 12.8825 17.3891 12.8825 17.3723C12.916 17.3555 12.9551 17.3276 12.9886 17.3053C12.9048 17.2382 12.726 17.1097 12.4857 17.0706C12.469 17.0706 12.4578 17.0706 12.3907 17.0482C12.2846 16.9923 12.2678 16.9868 12.1449 17.0091C12.1449 17.0762 12.1449 17.1432 12.1505 17.2103C12.089 17.2103 12.0331 17.2103 11.9716 17.2103C11.9716 17.1823 11.9716 17.1544 11.9716 17.0929C11.994 17.065 12.0275 17.0259 12.0499 16.9979C12.0666 16.9868 12.089 16.97 12.1002 16.9588C12.089 16.9421 12.0778 16.9197 12.0666 16.9029C12.0666 16.9029 11.9493 16.8694 11.8264 16.8191H11.7761C11.7761 16.8191 11.7481 16.8191 11.6811 16.8303C11.6923 16.9756 11.6923 17.0426 11.5135 17.0147C11.5135 16.9868 11.5135 16.9588 11.5135 16.9085V16.8471C11.5861 16.8471 11.6084 16.8471 11.6923 16.8135C11.7425 16.5677 11.6978 16.4727 11.6811 16.4336C11.642 16.4336 11.5917 16.4336 11.5526 16.4336C11.5526 16.3553 11.547 16.2771 11.5246 16.1654C11.5023 16.0871 11.4576 16.0201 11.4296 15.9418C11.2061 15.886 11.1838 15.8245 11.167 15.7686C10.951 15.6829 10.8355 15.6364 10.8206 15.6289C10.7088 15.5731 10.6082 15.6457 10.4965 15.6401C10.4741 15.6401 10.4518 15.6401 10.4183 15.6401C9.89859 15.5395 9.89859 15.3272 9.89859 15.2378C9.76076 15.167 9.66949 15.1167 9.62479 15.0869C9.62479 15.0869 9.62479 15.059 9.56333 15.0366C9.46275 14.9696 9.46275 14.9584 9.46275 14.8299C9.45157 14.8299 9.43481 14.8299 9.39011 14.8355C9.32864 14.8522 9.26718 14.8802 9.20571 14.8969C9.17218 14.8634 9.1517 14.8038 9.14425 14.7181C9.14425 14.7181 9.18895 14.707 9.20571 14.7014C9.20571 14.6846 9.2113 14.6623 9.21689 14.6399C9.15356 14.6064 9.09582 14.584 9.04367 14.5728L8.95426 14.6511C8.95426 14.6511 8.9375 14.6511 8.89839 14.6343C8.86486 14.6231 8.81457 14.612 8.78104 14.612C8.72517 14.6734 8.71399 14.7628 8.6637 14.8299C8.64135 14.8299 8.61341 14.8299 8.59665 14.8299C8.50166 14.679 8.50166 14.679 8.35637 14.6511C8.28932 14.6511 8.21668 14.6511 8.12728 14.6455C8.09375 14.6343 8.04346 14.6175 8.00435 14.612C8.00435 14.5673 8.00435 14.5226 7.94847 14.4779C7.85348 14.4499 7.77525 14.3773 7.67467 14.3549C7.65791 14.3661 7.63555 14.3773 7.62438 14.3885C7.62438 14.3885 7.54615 14.4741 7.38969 14.6455C7.42322 14.8168 7.43998 14.9249 7.43998 14.9696C7.43998 14.9696 7.40646 14.9975 7.39528 15.0143C7.32823 14.9081 7.14383 14.5337 7.45116 14.2823L7.4344 14.2376C7.40646 14.2376 7.37852 14.2376 7.32823 14.2432C7.21647 14.2823 7.21647 14.2935 7.22765 14.4332C7.15501 14.4332 7.08237 14.4332 7.00973 14.4332C6.83837 14.5524 6.70799 14.612 6.61858 14.612C6.61858 14.7014 6.62976 14.7852 6.61858 14.8802C6.58878 14.9137 6.53291 14.9435 6.45095 14.9696C6.45095 15.154 6.19392 15.2546 6.2945 15.4669C6.31126 15.4669 6.33361 15.4725 6.35596 15.4781C6.36714 15.6569 6.59623 15.858 6.39507 16.0201C6.38017 16.2399 6.33547 16.3572 6.26097 16.3721C6.27214 16.4168 6.28332 16.4783 6.30008 16.523C6.27214 16.5453 6.23303 16.5788 6.21068 16.6012C6.21068 16.6291 6.21068 16.6627 6.21068 16.6906C6.08775 16.7353 6.08216 16.7912 6.10451 16.9476C6.05981 16.9476 6.00952 16.9476 5.97041 16.97C6.00393 17.0929 5.99834 17.227 6.03746 17.3444C6.09892 17.3667 6.1548 17.3444 6.21627 17.35C6.21627 17.3779 6.22744 17.4058 6.23303 17.4394C6.22185 17.4561 6.21068 17.4785 6.20509 17.4952C6.17156 17.5064 6.12686 17.5288 6.10451 17.5567C6.12686 17.6852 6.02628 17.8193 6.12686 17.9423C6.12686 17.959 6.12686 17.9702 6.13804 17.9981C6.21627 18.3669 6.66329 18.4507 6.76387 18.8028C6.76945 18.8363 6.78063 18.8642 6.7918 18.8978C6.8868 19.0207 6.90915 19.1827 7.02649 19.2889C7.25 19.4957 7.24441 19.9986 7.67467 19.9371C8.0714 19.8868 8.09375 20.4344 8.46254 20.4232C8.50166 20.5517 8.53518 20.6803 8.57988 20.82C8.57988 20.8591 8.59665 20.9038 8.61341 20.9373V20.9541C8.61341 20.9541 8.619 20.9764 8.64135 21.0267C8.65252 21.0435 8.6637 21.0658 8.66929 21.0826C8.66929 21.0882 8.66929 21.0937 8.66929 21.1496C8.66929 21.1887 8.68605 21.239 8.70282 21.2726V21.2837C8.70282 21.2837 8.7084 21.3117 8.73634 21.3564C8.74193 21.3731 8.7531 21.3955 8.75869 21.4178V21.4402C8.75869 21.4402 8.77546 21.4625 8.76987 21.5296C8.78104 21.5631 8.80898 21.6078 8.83133 21.6413C8.83133 21.6525 8.83692 21.6637 8.84251 21.6749C8.84251 21.6861 8.8481 21.6972 8.85368 21.714C8.87045 21.8369 8.84251 21.9654 8.8928 22.0828C8.91887 22.1573 8.94868 22.3231 8.9822 22.5801C8.9822 22.5801 8.98779 22.5913 9.01014 22.6304C9.26159 23.0439 9.34541 23.1836 9.28953 23.3847C9.3007 23.4015 9.31188 23.4238 9.33982 23.4685C9.34541 23.4853 9.35658 23.5077 9.36776 23.5244C9.39011 23.5542 9.39942 23.6436 9.3957 23.7926C9.54656 23.9379 9.56892 24.1614 9.71978 24.3067C9.82595 24.4017 9.79801 24.5805 9.94329 24.6476C9.96565 24.6476 9.988 24.6476 10.0103 24.6476L9.85948 24.4185C9.85948 24.4185 9.91536 24.4185 9.94329 24.4185C9.96006 24.4464 9.97682 24.4688 9.99358 24.4967C9.99358 24.5135 9.988 24.5414 9.98241 24.5582C10.0159 24.6029 10.0495 24.6476 10.0774 24.6978C10.0774 24.6978 10.1314 24.7854 10.2394 24.9605C10.2059 24.9381 10.1612 24.9102 10.1277 24.8878L10.1109 24.8655C10.1109 24.8655 10.083 24.832 10.0662 24.8152C10.0662 24.8152 10.0718 24.8208 10.0495 24.8264C10.0662 24.8487 10.0886 24.8767 10.1221 24.899C10.1892 24.9437 10.2488 24.9977 10.3009 25.0611C10.245 25.0387 10.1947 24.9996 10.1389 24.9828C10.1612 25.0052 10.178 25.0275 10.178 25.0555C10.178 25.0722 10.1836 25.1002 10.1836 25.1169C10.3065 25.1952 10.4518 25.2231 10.5468 25.3349C10.5132 25.3404 10.4685 25.3684 10.4462 25.3907C10.4462 25.3907 10.4518 25.3963 10.4965 25.4354C10.5244 25.4578 10.5635 25.4857 10.5971 25.5025C10.5971 25.5025 10.6026 25.5081 10.6362 25.5584C10.7088 25.5975 10.7703 25.6534 10.8373 25.6981V25.7204L10.8709 25.7372C10.882 25.7372 10.8876 25.7372 10.9323 25.7483C10.9547 25.7763 10.9938 25.8042 11.0273 25.8154L11.0441 25.8266L11.2788 25.9495C5.56809 24.6811 1.2767 19.5851 1.2767 13.5C1.2767 12.2986 1.44433 11.1364 1.75724 10.0356L1.74048 10.2032L1.70137 10.4994L1.72372 10.6223L1.75166 10.7676V10.8738L1.67901 10.9743L1.69019 11.0917L1.73489 11.2034L1.79636 11.3264L1.8243 11.4661L1.79636 11.589V11.6896L1.86341 11.751L1.9137 11.8796L1.94723 11.9857L1.93605 12.1198L1.98075 12.0751L2.0031 11.9298L1.99193 11.7678L1.93605 11.7063L1.94723 11.5611L1.89694 11.4437V11.0861L1.86341 10.9576L1.88017 10.7844L1.83547 10.7341L1.84665 10.5217L1.8243 10.3485L1.87459 10.1138L1.92488 10.0971L1.98075 10.1641L1.99193 10.287L1.95281 10.4882L1.98075 10.7508L2.02546 10.9576L2.08133 11.1029L2.11486 11.2537L2.10368 11.4269L2.17632 11.5275L2.22103 11.6896L2.25455 11.8628L2.34396 12.1031L2.3719 12.3154L2.42777 12.4104L2.36072 12.4942L2.33278 12.6339L2.45012 12.8295L2.5507 12.9915L2.68481 13.0642L2.8245 13.215L2.99772 13.3435L3.19888 13.5056L3.36651 13.5782L3.47268 13.5615L3.50621 13.4665L3.62914 13.4385L3.76883 13.5447L3.93088 13.7347L4.02028 13.8911C4.06498 13.8911 4.10969 13.8911 4.15439 13.8911C4.17115 13.8911 4.18791 13.8911 4.20468 13.8911L4.28291 13.9358L4.37231 14.1035L4.54553 14.1761V14.0644L4.64611 14.1314C4.85099 14.4928 4.94785 14.7088 4.93667 14.7796L4.99814 14.869L5.07078 14.8243L5.17136 14.8858C5.31291 15.0459 5.41536 15.1223 5.47868 15.1149L5.7469 15.2769L5.89218 15.3495L5.86983 15.1707L5.93129 15.059L6.17715 15.0757L6.21068 15.1875L6.28891 15.1763L6.32243 15.031L6.22185 14.8969C6.13804 14.8969 6.04863 14.8969 5.96482 14.9025H5.79718L5.55691 14.8802L5.43957 14.7852L5.27752 14.5728V14.3996C5.27752 14.327 5.26635 14.2488 5.26635 14.1705L5.30546 13.8856C5.30546 13.8185 5.30546 13.757 5.30546 13.69L5.22723 13.5447L5.07637 13.4441L4.85844 13.4721L4.70757 13.4329L4.53994 13.5335L4.43377 13.4329L4.53435 13.3156V13.2206C4.53435 13.1815 4.53435 13.1424 4.53435 13.1089L4.57347 12.9803L4.63493 12.7736C4.63493 12.6954 4.64052 12.6227 4.64611 12.5445L4.74669 12.4495L4.76904 12.2763L4.70199 12.2092L4.4673 12.2428L4.32202 12.2819L4.24938 12.4439L4.17674 12.6842L4.1041 12.9021L3.98675 12.93L3.81912 13.0083L3.65149 13.053L3.57885 12.8965L3.44474 12.7904L3.40563 12.6115L3.3274 12.3769L3.30505 11.9745V11.684L3.40004 11.4549L3.46709 11.1978L3.43916 10.9408L3.59561 10.6838L3.69619 10.667L3.81912 10.5329L3.94764 10.3764L4.08733 10.4044L4.18233 10.4547L4.27732 10.3988L4.32761 10.5329C4.37231 10.5329 4.41701 10.5329 4.46171 10.5329L4.56788 10.5161V10.41L4.62935 10.2368L4.79698 10.22L4.91432 10.1921L5.12666 10.2144L5.18812 10.3597C5.18812 10.3597 5.23841 10.3597 5.26076 10.3597L5.32223 10.2703L5.38928 10.2479L5.4731 10.3764L5.55132 10.5329C5.54015 10.5944 5.53456 10.6558 5.52897 10.7173L5.57368 10.8235L5.58485 10.9408L5.6519 11.0246L5.67984 11.1531L5.76925 11.2146V11.3599L5.84748 11.3934L5.90894 11.2928L5.96482 11.1364L5.93688 10.952L5.92012 10.6726L5.84189 10.4267C5.85865 10.3206 5.87541 10.2088 5.90894 10.0524C5.93129 10.0021 5.95923 9.93502 5.98717 9.87914L6.12127 9.64445L6.27773 9.56623L6.47889 9.38183L6.66887 9.24214L6.83651 9.16391L6.8868 9.0298L7.02649 8.94598L6.96502 8.72248L6.90915 8.6219L6.97061 8.49897L6.92591 8.38721L7.06002 8.31457L7.12707 8.47103L7.22206 8.30898L7.32264 8.16929L7.41763 8.07988L7.5685 7.78373C7.64673 7.78373 7.72496 7.78373 7.80319 7.78373L7.97641 7.68315L8.15522 7.6608L8.13845 7.54346L8.18874 7.30319L8.35637 7.12438C8.40108 7.12438 8.45137 7.12438 8.49607 7.12438L8.56871 7.01821H8.7531L8.94868 6.92322L9.08837 6.78353C9.3007 6.77608 9.4404 6.79284 9.50745 6.83382C9.50745 6.83382 9.46275 6.86734 9.44598 6.87852C9.36776 6.87852 9.28953 6.87852 9.18895 6.89528C9.08092 6.96606 9.02504 7.04615 9.02132 7.13555L9.11072 7.18026L9.24483 7.08527L9.33982 7.02939L9.50745 6.9791L9.69185 6.89528L9.86507 6.85617L10.0271 6.69971L10.178 6.58795L10.2227 6.45944L10.0383 6.50414L9.87624 6.69412L9.66949 6.7053L9.52421 6.62707L9.38452 6.49296L9.35658 6.25828L9.53539 6.14094L9.5745 5.95654L9.36217 5.93978L9.11072 6.01242L8.81457 6.16887L8.49607 6.42032L8.26138 6.5656L8.37873 6.4315L8.53518 6.28622L8.63017 6.21358L8.45695 6.16329C8.53518 6.16329 8.61341 6.16329 8.69723 6.16329L8.79222 6.04036L8.95985 5.92301L9.1219 5.91184L9.23365 5.77214L9.38452 5.72185C9.45716 5.72185 9.52421 5.72185 9.59685 5.72185L9.988 5.71068L10.178 5.7442L10.34 5.73303L10.5244 5.62127L10.7032 5.47041L10.9659 5.44247L11.1111 5.39218L11.195 5.32512L11.1279 5.25807L11.195 5.19102L11.2341 5.05132L11.0553 5.02897L11.0385 4.95074C10.9714 4.95074 10.9044 4.95074 10.8429 4.95074L10.6697 5.03456L10.5524 5.10161L10.4741 5.06809L10.5356 4.96751L10.7256 4.91163L10.9491 4.86134L11.0608 4.78311H10.9267L10.8094 4.71047L10.6474 4.66577L10.5691 4.57078L10.4797 4.47579L10.4574 4.39197L10.5356 4.37521L10.5803 4.31374L10.5188 4.17405L10.4462 4.01759L10.3736 3.75497V3.63762L10.1724 3.79408C10.15 3.83878 10.1333 3.88349 10.1109 3.92819L9.94888 3.97848L9.82036 4.07347H9.69185L9.70302 3.97848L9.64714 3.91142L9.50745 3.94495L9.61921 3.79408C9.65273 3.72703 9.68626 3.65998 9.71978 3.59851L9.77007 3.49793H9.63038L9.56333 3.4197L9.52421 3.31353L9.42363 3.20178L9.32864 3.25766H9.18895L9.15542 3.21854C9.09954 3.21854 9.04926 3.21854 8.99897 3.21854L8.88162 3.29118L8.86486 3.39735L8.74193 3.54263L8.69723 3.63762L8.66929 3.77173C8.64135 3.77173 8.60782 3.77173 8.57988 3.77173L8.50724 3.90025L8.40666 3.97289L8.45137 4.02877L8.51283 4.12376L8.45137 4.29698C8.41784 4.36403 8.37873 4.43108 8.3452 4.49814L8.18315 4.63783L8.00435 4.74959L7.81995 4.77752V4.95074C7.78642 5.02897 7.7529 5.10161 7.71378 5.17984L7.70261 5.31395L7.62438 5.42012L7.48469 5.55981L7.30029 5.58775V5.39776L7.25559 5.23572C7.27794 5.19102 7.30029 5.14073 7.32823 5.09603L7.39528 4.90046L7.50145 4.73841L7.31705 4.71606H7.17736L7.13266 4.66018L6.99296 4.60989V4.52049L6.90915 4.4255L6.83651 4.32492L6.60741 4.39197L6.63535 4.29698L6.73034 4.07347L6.69123 4.01759L6.70799 3.93377L6.94826 3.66556L7.19971 3.46999L7.4344 3.29677L7.59085 3.23531L7.7529 3.1459L7.80319 3.0565L7.71378 3.02297L7.64114 2.96709L7.76966 2.98945L7.85906 3.02856L7.93729 3.00621L8.04346 2.91122L8.11051 2.95592L8.19433 2.93357L8.27256 2.86093L8.3452 2.8274L8.46254 2.72682L8.39549 2.71565H8.30608L8.32285 2.65418L8.27815 2.5983H8.3452L8.42343 2.63742L8.46813 2.67094L8.58547 2.63183L8.73075 2.54243L8.74193 2.47537C8.74193 2.47537 8.79781 2.47537 8.82574 2.47537L8.80898 2.53684L8.69723 2.60948L8.52959 2.74358C8.4793 2.79946 8.42343 2.85534 8.37314 2.91122L8.25021 2.95033L8.2055 3.02297H8.29491C8.29491 3.02297 8.25579 3.07326 8.3005 3.1012C8.32285 3.09561 8.35079 3.08444 8.37314 3.07885L8.48489 2.98945H8.60223L8.65811 3.00062L8.69723 3.03415C8.73075 3.03415 8.76428 3.03415 8.80339 3.03415L8.8928 2.93916L8.80898 2.9168L8.86486 2.79946L8.75869 2.78829V2.69888L8.69164 2.67653C8.71399 2.65418 8.73634 2.63183 8.75869 2.60948L8.82016 2.62624L8.89839 2.57595L8.9375 2.52566C8.97103 2.52566 8.99897 2.52566 9.0269 2.52566L9.13307 2.44743L9.28953 2.36921L9.37893 2.30774L9.40128 2.24069L9.47392 2.13452L9.56892 2.11776L9.67508 2.03953L9.70302 1.9613L9.66949 1.92219L9.64714 1.86631C9.68067 1.86631 9.71978 1.86631 9.75331 1.86631L9.81478 1.82719H9.88183L9.893 1.87748H9.988L10.0942 1.84954L10.1109 1.7769L10.1724 1.76014L10.15 1.83837H10.2227L10.178 1.92219L10.2283 1.93336L10.2059 1.99483L10.245 2.02276L10.2115 2.10099L10.2674 2.12893V2.20716L10.2003 2.30774L10.0048 2.41949L9.82595 2.53125L9.79243 2.63742L9.60803 2.66536L9.54098 2.643C9.50745 2.643 9.47951 2.643 9.45157 2.643L9.26159 2.738C9.23365 2.77152 9.2113 2.80505 9.18336 2.83299L9.3007 2.85534L9.41805 2.84416L9.49069 2.78829L9.56333 2.75476L9.62479 2.77152L9.73096 2.81064L9.77007 2.94474L9.74772 3.01738L9.77007 3.11238C9.80919 3.11238 9.85389 3.11238 9.893 3.11238L9.94888 3.24089H10.15L10.2506 3.30236L10.3065 3.22413L10.178 3.06209L10.1277 2.99503V2.9168L10.2283 2.98386L10.4015 3.1012L10.4909 3.17384C10.5132 3.13473 10.53 3.09561 10.5524 3.0565L10.6753 2.95592L10.5915 2.89445L10.6529 2.738L10.53 2.68771L10.4741 2.49772L10.5691 2.44743L10.6585 2.40273L10.7815 2.57595L10.8038 2.68771L10.8988 2.70447L11.005 2.57036L11.1614 2.52007L11.2061 2.46978C11.2061 2.46978 11.262 2.46978 11.2899 2.46978L11.357 2.41391L11.3961 2.33009C11.3402 2.33009 11.2844 2.33009 11.2285 2.33009C11.2397 2.31333 11.2452 2.30215 11.2564 2.28539L11.2005 2.21275L11.1391 2.20157L11.0664 2.16246C11.0664 2.16246 11.0161 2.16246 10.9882 2.16246L11.005 2.10099L11.0161 2.0507C10.9714 2.0507 10.9323 2.0507 10.8876 2.0507H10.8429C10.8653 2.01718 10.8876 1.98924 10.91 1.95571C10.9379 1.95571 10.9659 1.95571 10.9994 1.95571L11.0776 1.9166L10.9826 1.88866L11.0273 1.85513L11.0888 1.84396L11.072 1.78808L11.005 1.76573L11.0888 1.70985L11.0329 1.67632H10.9323L10.9603 1.6428H10.8876L10.8653 1.63162L10.9714 1.58692L10.9156 1.56457L10.7815 1.59251L10.7926 1.52546L10.8317 1.48634H10.7759L10.8262 1.43605L10.7759 1.40252C10.7368 1.40252 10.6976 1.40252 10.6585 1.40252L10.5915 1.44164L10.5188 1.45281L10.4797 1.44164L10.3959 1.48634H10.3344L10.4127 1.43046L10.5244 1.37459L10.5803 1.30195L10.6585 1.24048C10.625 1.24048 10.5971 1.24048 10.5635 1.24048L10.4462 1.29077H10.3736L10.2786 1.32988L10.1612 1.39694L10.0886 1.46958L9.988 1.51987L9.90977 1.60927L9.8483 1.62045L9.89859 1.54222L10.0383 1.44164L10.1389 1.37459L10.2953 1.30753L10.4518 1.25166C10.4518 1.25166 10.3959 1.25166 10.368 1.25166C10.4965 1.21254 10.625 1.17901 10.7591 1.14549C10.8746 1.13431 10.9491 1.11941 10.9826 1.10079C10.9826 1.10079 11.005 1.08402 11.0217 1.07844C11.3402 1.00579 11.6587 0.938742 11.9884 0.888452L11.9996 0.89404V0.905215H11.994V0.916391V0.921978L12.0052 0.933154V0.94433H12.0275V0.949917H12.0331H12.0443H12.0499L12.0778 0.916391C12.0778 0.916391 12.0778 0.916391 12.0946 0.916391C12.1058 0.916391 12.1225 0.916391 12.1337 0.921978H12.1449L12.1616 0.910803H12.1896C12.1896 0.910803 12.2175 0.921978 12.2287 0.916391H12.2399L12.251 0.905215H12.2622H12.2734H12.2901L12.3013 0.899628H12.3293H12.346H12.3684H12.3907H12.3963L12.4075 0.910803V0.921978H12.4131C12.4131 0.921978 12.4466 0.921978 12.4578 0.921978H12.4634L12.4801 0.933154L12.4969 0.938742H12.5025H12.5081V0.955505H12.5248C12.5248 0.955505 12.5248 0.961093 12.5416 0.96668V0.983444C12.5416 0.983444 12.5192 1.01138 12.5025 1.04491V1.05608H12.5137L12.5192 1.06167V1.08961V1.11755V1.13431V1.17901V1.21254L12.5304 1.23489V1.24607C12.5304 1.24607 12.5025 1.26283 12.5081 1.29636C12.4969 1.31312 12.4913 1.3243 12.4801 1.33547C12.4578 1.35037 12.4447 1.36341 12.441 1.37459H12.4857C12.4857 1.37459 12.4745 1.39694 12.4522 1.40811C12.441 1.40811 12.4243 1.4137 12.4131 1.41929C12.3963 1.44164 12.3963 1.46958 12.374 1.48634H12.3349C12.3349 1.48634 12.3237 1.50869 12.3125 1.51987V1.54222C12.3125 1.54222 12.3404 1.55339 12.3516 1.55339C12.3572 1.55339 12.3628 1.55339 12.3907 1.55339H12.4075C12.441 1.55339 12.4745 1.55339 12.5137 1.55339C12.5137 1.55339 12.549 1.54222 12.6198 1.51987C12.6087 1.55898 12.5975 1.60927 12.6757 1.61486H12.6869C12.6869 1.61486 12.726 1.64839 12.7428 1.66515V1.68191L12.7316 1.69868C12.7204 1.69868 12.7036 1.69868 12.6813 1.69868H12.6589H12.6142C12.5695 1.69868 12.5472 1.69868 12.5304 1.66515C12.3796 1.64839 12.3628 1.66515 12.3628 1.70985L12.3907 1.73779C12.3516 1.78249 12.279 1.76573 12.251 1.82719L12.2622 1.84396C12.3218 1.85141 12.3628 1.8719 12.3851 1.90542H12.4075C12.4559 1.87562 12.5081 1.86072 12.5639 1.86072C12.5639 1.86072 12.5807 1.81602 12.5863 1.79367C12.5584 1.79367 12.5304 1.79367 12.5025 1.78808V1.77132C12.5025 1.77132 12.469 1.77132 12.4578 1.77132L12.4745 1.74897C12.4745 1.74897 12.5025 1.74897 12.5304 1.74897C12.549 1.76387 12.5788 1.77504 12.6198 1.78249H12.6813C12.6813 1.78249 12.7092 1.78808 12.7148 1.79367V1.81602V1.82719C12.6869 1.83837 12.6757 1.86631 12.6534 1.87748C12.6534 1.87748 12.6534 1.88307 12.6534 1.89983C12.672 1.92219 12.6813 1.93895 12.6813 1.95012C12.6813 1.95012 12.6701 1.98924 12.6645 2.01159C12.6422 2.01159 12.6198 2.01159 12.5863 2.006C12.5584 2.01718 12.536 2.04512 12.4969 2.04512C12.4969 2.04512 12.4801 2.04512 12.4634 2.04512C12.4522 2.04512 12.4354 2.04512 12.4243 2.04512C12.4131 2.07864 12.3963 2.11217 12.3684 2.1457C12.3572 2.1457 12.3404 2.13452 12.3293 2.13452C12.2436 2.17922 12.2007 2.2053 12.2007 2.21275C12.2007 2.21275 12.2007 2.22392 12.2007 2.24627C12.2007 2.25745 12.2063 2.27421 12.2119 2.28539C12.2957 2.30215 12.3013 2.33009 12.3013 2.33568C12.3013 2.39714 12.2063 2.37479 12.2063 2.44185L12.2175 2.4642C12.2175 2.4642 12.2287 2.50331 12.2399 2.54801C12.2901 2.56478 12.3293 2.52007 12.374 2.52566C12.3851 2.52566 12.3907 2.52566 12.4131 2.52566L12.4243 2.54243C12.4243 2.54243 12.4131 2.57036 12.4075 2.58154C12.3963 2.58154 12.3907 2.58154 12.374 2.58154H12.3572C12.3125 2.69329 12.2957 2.75848 12.3069 2.77711C12.3851 2.77711 12.4298 2.69329 12.5081 2.71006C12.5025 2.74358 12.4913 2.77711 12.4745 2.81623C12.4466 2.84416 12.4019 2.84416 12.3684 2.86651C12.346 2.88328 12.5025 3.25207 12.5081 3.25766C12.6254 3.43647 12.726 3.52028 12.8042 3.51469C12.8154 3.51469 12.8266 3.51469 12.8489 3.51469C12.8489 3.51469 12.8713 3.50911 12.916 3.49793H12.9327C12.9327 3.49793 12.9719 3.50352 12.9942 3.50911C12.9942 3.62645 13.1227 3.60969 13.1786 3.67115C13.2065 3.70468 13.43 3.70468 13.4245 3.6041C13.4245 3.59292 13.4245 3.58733 13.4245 3.5594C13.4356 3.43088 13.648 3.30795 13.5139 3.1906C13.5139 3.1906 13.43 3.10679 13.5642 3.1012C13.5753 3.1012 13.5865 3.1012 13.6089 3.1012C13.6089 3.1012 13.6293 3.1012 13.6703 3.1012C13.7113 3.1012 13.7523 3.0565 13.7933 2.96709C13.7933 2.92239 13.7933 2.88328 13.81 2.8274L13.8212 2.81064C13.8212 2.74358 13.7988 2.72682 13.7709 2.69888V2.67653C13.8156 2.64859 13.8715 2.67094 13.9106 2.63742C13.9385 2.61507 13.9162 2.58154 13.9218 2.55919C13.9776 2.55919 14.0279 2.55919 14.0838 2.55919C14.0782 2.5089 14.0782 2.50331 14.0838 2.46978C14.1118 2.46978 14.1453 2.46978 14.1732 2.48096C14.1732 2.54801 14.1732 2.54801 14.1844 2.57036C14.2682 2.56478 14.3241 2.50331 14.4023 2.46978H14.4303C14.4526 2.46978 14.4843 2.4642 14.5252 2.45302V2.43067C14.5476 2.38597 14.5979 2.35803 14.6258 2.31892C14.6445 2.31147 14.6631 2.28725 14.6817 2.24627C14.6817 2.24627 14.7152 2.2351 14.7264 2.22951C14.7264 2.22392 14.7264 2.21275 14.7264 2.19599C14.7599 2.16618 14.773 2.13266 14.7655 2.09541H14.7711H14.7935H14.799H14.8046L14.8214 2.10658H14.827L14.8438 2.12334C14.8717 2.13452 14.8773 2.13452 14.9052 2.13452C14.9611 2.13452 15.0114 2.17363 15.0728 2.17363C15.1455 2.17363 15.1511 2.06747 15.2293 2.06747C15.2796 2.06747 15.3243 2.02835 15.3802 2.03394C15.4584 2.04512 15.4305 1.92777 15.4919 1.91101C15.5255 1.91101 15.5646 1.91101 15.6093 1.91101C15.6093 1.91101 15.6279 1.89052 15.6651 1.84954L15.654 1.83278L15.6316 1.82161L15.6037 1.84954V1.8719H15.5757C15.5757 1.8719 15.5646 1.8719 15.5534 1.8719C15.5087 1.86631 15.4863 1.81602 15.4416 1.81602C15.4361 1.81602 15.4305 1.81602 15.4081 1.81602C15.274 1.81043 15.2517 1.76573 15.2349 1.74897C15.2293 1.73779 15.2237 1.72103 15.2181 1.70985C15.3187 1.69495 15.3783 1.67819 15.3969 1.65956C15.464 1.6875 15.4752 1.7769 15.5534 1.78808L15.5702 1.7769V1.74338C15.6149 1.72661 15.654 1.74897 15.6931 1.72661C15.6428 1.65956 15.5646 1.63162 15.4975 1.57574C15.4472 1.53104 15.3634 1.51428 15.3299 1.44164H15.3466C15.4025 1.46772 15.4323 1.48075 15.4361 1.48075C15.4361 1.48075 15.4472 1.48075 15.4696 1.48075H15.4919C15.4808 1.46213 15.4677 1.44164 15.4528 1.41929C15.4528 1.41929 15.4472 1.40811 15.4361 1.38576C15.4361 1.36341 15.369 1.30753 15.3019 1.35782C15.2796 1.35782 15.2628 1.35782 15.2405 1.34106L15.2684 1.31312C15.2684 1.31312 15.2628 1.30753 15.1958 1.27959V1.26842C15.2237 1.26842 15.2517 1.26842 15.274 1.26842C15.2852 1.28518 15.2908 1.29636 15.3019 1.31312C15.3243 1.31312 15.3466 1.31312 15.3858 1.31312L15.3969 1.29636H15.4137C15.4137 1.29636 15.4249 1.29636 15.4472 1.29636C15.4733 1.30753 15.4938 1.3094 15.5087 1.30195C15.5255 1.19578 15.369 1.24048 15.3131 1.20137V1.1846C15.3969 1.20137 15.4193 1.19019 15.4305 1.1846L15.4416 1.16225H15.4584L15.4863 1.16784C15.4975 1.16784 15.5143 1.16784 15.5255 1.16225C15.464 1.10637 15.3746 1.10079 15.3243 1.02815C15.3243 1.02815 15.3411 1.02628 15.3746 1.02256C15.3746 1.02256 15.3466 0.994619 15.3243 0.972268C15.2982 0.961093 15.2796 0.949917 15.2684 0.938742C15.2684 0.938742 15.2684 0.938742 15.2572 0.927566C15.2014 0.899627 15.1343 0.910803 15.0896 0.866101H15.084C15.084 0.866101 15.0952 0.84375 15.1343 0.838162C15.1455 0.838162 15.1511 0.838162 15.1623 0.838162C15.179 0.838162 15.1958 0.838162 15.2349 0.860513C15.2349 0.860513 15.2349 0.860513 15.2461 0.877277C15.2572 0.899628 15.2628 0.905215 15.3243 0.94433H15.3355C15.3019 0.905215 15.2628 0.871689 15.2237 0.838162V0.821399L15.207 0.815811C15.1846 0.804636 15.1529 0.799048 15.112 0.799048C15.112 0.799048 15.1008 0.799048 15.084 0.799048H15.0673C15.0673 0.799048 15.0505 0.782285 15.0449 0.776697C16.5312 0.905215 17.945 1.29077 19.2469 1.89425V1.90542C19.2469 1.90542 19.2022 1.89425 19.1575 1.86072C19.1296 1.84396 19.1184 1.84396 19.1072 1.84396L19.096 1.86072C19.1296 1.89983 19.1854 1.92777 19.2692 1.95012C19.2972 1.96689 19.3195 1.98365 19.3419 1.99483H19.3195C19.286 1.97806 19.2469 1.97248 19.2078 1.9613C19.1966 1.9613 19.1854 1.9613 19.1798 1.9613C19.2916 2.03394 19.2916 2.03394 19.3195 2.06188C19.219 2.02276 19.1296 1.96689 19.0346 1.92219C19.0346 1.93895 19.0513 1.95012 19.0737 1.9613C19.0904 1.97248 19.219 2.04512 19.2469 2.08982C19.219 2.09541 19.219 2.09541 19.124 2.03394L19.1407 2.05629L19.124 2.07305C19.124 2.07305 19.1519 2.10099 19.1687 2.10658C19.1966 2.12893 19.2357 2.13452 19.2692 2.15687C19.286 2.16805 19.2972 2.17922 19.3084 2.18481L19.3251 2.20157C19.2637 2.18481 19.1072 2.08982 19.1016 2.08423C19.1072 2.10658 19.1351 2.12893 19.1687 2.15128C19.1519 2.15128 19.1351 2.15128 19.124 2.15128C19.124 2.15128 19.1463 2.16991 19.191 2.20716C19.191 2.20716 19.1631 2.21834 19.1463 2.21834C19.1519 2.22951 19.1631 2.24627 19.1687 2.25745H19.1575C19.1575 2.25745 19.1798 2.29098 19.191 2.30774H19.1743L19.1854 2.3245C19.2022 2.33568 19.2134 2.33568 19.2245 2.33568C19.2245 2.3245 19.2245 2.30215 19.2245 2.29656H19.2469V2.27421C19.2581 2.26863 19.2692 2.25186 19.2748 2.24069C19.3419 2.24627 19.3587 2.25745 19.3922 2.29098C19.381 2.29098 19.3642 2.29098 19.3475 2.29098L19.3642 2.30774H19.3419C19.3587 2.35803 19.4704 2.45861 19.4816 2.46978H19.4592C19.4592 2.46978 19.6325 2.76035 19.6716 2.79387L19.6492 2.77152C19.6418 2.80505 19.6418 2.82554 19.6492 2.83299C19.6492 2.83299 19.6269 2.84975 19.6157 2.86093C19.6269 2.8721 19.638 2.88887 19.6492 2.90004H19.6716C19.6716 2.90004 19.7107 2.90004 19.7219 2.90004C19.7442 2.92612 19.761 2.94474 19.7721 2.95592C19.7721 2.95592 19.761 2.98386 19.761 3.00062H19.7386C19.7498 3.03974 19.7442 3.04532 19.7274 3.06767C19.7274 3.06767 19.7386 3.08816 19.761 3.12914L19.7442 3.1459C19.7442 3.1459 19.7051 3.12914 19.6883 3.11796C19.666 3.11796 19.6548 3.11796 19.6436 3.11796L19.6772 3.16267C19.6772 3.16267 19.7107 3.1906 19.7219 3.20178V3.22413L19.6939 3.22972C19.6827 3.22972 19.6827 3.22972 19.6827 3.22972H19.6772C19.6772 3.22972 19.6678 3.25021 19.6492 3.29118H19.6269V3.31353C19.6492 3.34147 19.6995 3.40294 19.6157 3.40294C19.6101 3.41411 19.5989 3.43088 19.5989 3.44764C19.6362 3.48489 19.6567 3.50911 19.6604 3.52028L19.6436 3.53704C19.666 3.59292 19.7163 3.61527 19.7498 3.65998C19.7498 3.67674 19.7386 3.67674 19.733 3.67674V3.69909C19.733 3.69909 19.7666 3.74379 19.7833 3.76055C19.8001 3.76055 19.8224 3.76055 19.8448 3.76055C19.9062 3.74938 19.9286 3.81643 19.9286 3.81643L19.9174 3.83878C19.9174 3.83878 19.9398 3.8779 19.9565 3.90025L19.9398 3.91142C19.9584 3.9524 20.005 3.97661 20.0795 3.98406C20.0981 4.01387 20.1111 4.03622 20.1186 4.05112L20.1074 4.07347C20.2415 4.07906 20.3756 4.08464 20.5041 4.09582C20.5041 4.07347 20.4986 4.04553 20.4874 4.02318L20.5041 4.012H20.5265C20.5265 4.012 20.5153 3.9673 20.4986 3.95054C20.588 3.96171 20.6774 4.10141 20.6774 4.10141C20.9065 4.12376 21.1132 4.13493 21.3144 4.14611V4.12376H21.3423C21.3367 4.06788 21.2864 3.97289 21.2864 3.97289C21.2752 3.95613 21.2641 3.95054 21.2585 3.93936C21.2194 3.89466 21.2082 3.88907 21.13 3.89466C21.0685 3.82761 20.9791 3.79967 20.9344 3.72144C20.8673 3.64321 20.8003 3.57057 20.7332 3.49793C20.7332 3.4197 20.6494 3.38059 20.6382 3.30795H20.6606C20.6606 3.30795 20.6662 3.26883 20.6327 3.21854C20.6438 3.21296 20.6606 3.20737 20.6718 3.20737C20.6569 3.17384 20.6401 3.14776 20.6215 3.12914V3.10679H20.6438C20.6271 2.97268 20.4818 2.96709 20.4203 2.88328V2.86093C20.398 2.82181 20.3533 2.7827 20.3365 2.76594C20.3477 2.76594 20.37 2.76035 20.3812 2.76594C20.3924 2.76594 20.3924 2.76594 20.3924 2.76594C20.3924 2.76594 20.4594 2.80505 20.5097 2.84416V2.82181C20.5097 2.82181 20.5321 2.82181 20.6382 2.89445C20.6774 2.92798 20.7109 2.95592 20.7388 2.98386C20.7221 2.98386 20.7109 2.98386 20.6941 2.98386C20.8394 3.11238 20.8562 3.12355 20.8618 3.17384C20.8506 3.17384 20.8282 3.16825 20.8171 3.16267L20.8003 3.17943C20.9158 3.37686 21.0331 3.53146 21.1523 3.64321C21.1523 3.64321 21.1803 3.67674 21.1914 3.68233C21.1914 3.68233 21.482 3.90584 21.6161 3.95613H21.6273C21.6273 3.95613 21.6273 3.9226 21.6273 3.90584C21.6608 3.90025 21.6887 3.9226 21.7223 3.91701C21.7223 3.90584 21.7167 3.88907 21.7111 3.8779C21.7558 3.86672 21.7949 3.87231 21.834 3.8779V3.85555H21.8508C21.8843 3.8779 21.9123 3.91142 21.9514 3.92819C21.9737 3.92819 21.9961 3.92819 22.024 3.93377L22.0575 3.96171L22.0687 3.98406C22.0687 3.98406 22.0575 3.98406 22.0017 3.98406C22.0017 4.00642 22.0221 4.05857 22.0631 4.14052C22.0017 4.13493 21.9681 4.08464 21.9123 4.06788L21.8955 4.08464C21.8955 4.08464 21.8731 4.08464 21.8284 4.07347L21.8117 4.09023V4.11258C21.8117 4.11258 21.7837 4.10141 21.7726 4.09582L21.7558 4.107C21.7837 4.15728 21.8005 4.19081 21.8061 4.19081V4.20199L21.7893 4.19081H21.7781C21.767 4.19081 21.767 4.18522 21.739 4.16846L21.7167 4.14052H21.7055H21.6943H21.6832L21.6776 4.14611L21.6999 4.17964H21.7055L21.7223 4.1964C21.7223 4.1964 21.7297 4.20012 21.7446 4.20757L21.7726 4.22993C21.7726 4.22993 21.7223 4.24669 21.7055 4.26345C21.7558 4.34168 21.8061 4.35286 21.8675 4.35844C21.8731 4.33609 21.8731 4.30257 21.8675 4.2858C21.9849 4.30257 22.1358 4.48137 22.1413 4.48696C22.1264 4.51676 22.1339 4.55215 22.1637 4.59313C22.1637 4.59313 22.1637 4.62107 22.1469 4.62107C22.1469 4.62107 22.0985 4.58382 22.0017 4.50931H21.9849C21.9849 4.50931 21.9514 4.46461 21.9346 4.44785C21.9234 4.44785 21.9123 4.44785 21.8955 4.44785C22.0128 4.73841 22.0631 4.86134 22.2028 4.98986L22.214 5.02339C22.1022 4.99731 22.0408 4.98427 22.0296 4.98427C22.0408 5.0625 22.119 5.09044 22.1581 5.1519H22.1413C22.0687 5.11279 22.0017 5.05691 21.929 5.00662C21.929 5.00662 21.8992 5.05691 21.8396 5.15749C21.8396 5.15749 21.7837 5.15749 21.7614 5.15749C21.672 5.25807 21.577 5.10161 21.549 5.04574C21.5323 5.04574 21.5155 5.04574 21.5043 5.04574C21.5043 5.05691 21.5043 5.06809 21.4988 5.08485C21.4876 5.08485 21.4708 5.08485 21.4596 5.08485C21.4261 5.07926 21.4094 5.07926 21.3982 5.07368C21.387 5.07368 21.3702 5.07368 21.3591 5.07368C21.3702 5.09603 21.387 5.12397 21.3982 5.14632C21.3982 5.16867 21.3814 5.16867 21.3647 5.16867C21.3032 5.15749 21.2976 5.1519 21.2473 5.07926H21.2194C21.2194 5.07926 21.1858 5.07926 21.1691 5.07368C21.1579 5.05691 21.1467 5.03456 21.1356 5.0178L21.1132 4.98427C21.1356 4.95633 21.1691 4.95633 21.197 4.95633C21.2473 4.9731 21.292 5.00103 21.3423 5.0178L21.3647 4.98986C21.3255 4.90046 21.2305 4.73841 21.2305 4.73841C21.197 4.71047 21.1858 4.71047 21.1691 4.71047C21.1467 4.71606 21.1188 4.72723 21.0964 4.73841C21.0964 4.74959 21.102 4.76635 21.1076 4.77194C21.102 4.79988 21.0964 4.79988 21.0909 4.79988C21.0685 4.7887 21.0238 4.76635 21.0238 4.67695C21.007 4.65459 20.9959 4.63783 20.9847 4.62107C20.8171 4.64342 20.8562 4.40315 20.7221 4.36962C20.7221 4.36962 20.7276 4.40687 20.7388 4.48137C20.7388 4.48137 20.6941 4.50373 20.6718 4.5149C20.6829 4.53166 20.6997 4.5596 20.7165 4.57637C20.7221 4.58754 20.7276 4.59313 20.7332 4.59872C20.7332 4.60989 20.7332 4.62666 20.7332 4.63783L20.6997 4.66577C20.7072 4.69557 20.7835 4.79243 20.9288 4.95633C20.9288 4.95633 20.94 4.97868 20.9456 4.98986C20.9567 5.01221 20.9679 5.04015 20.9735 5.0625C21.007 5.1072 21.0517 5.14632 21.0853 5.18543C21.102 5.21896 21.1132 5.23572 21.1244 5.25807C21.1132 5.25807 21.102 5.25807 21.0853 5.25807C21.0629 5.25807 21.0294 5.26925 21.0014 5.26925H20.9679C20.9232 5.25807 20.912 5.25248 20.8171 5.25248C20.8171 5.26366 20.8171 5.28042 20.8171 5.2916C20.7947 5.30277 20.7724 5.31954 20.7556 5.34189C20.763 5.38659 20.7556 5.42012 20.7332 5.44247L20.6997 5.42012C20.6997 5.42012 20.6774 5.42012 20.6662 5.42012H20.6438C20.6438 5.42012 20.6215 5.42012 20.6047 5.42012C20.6047 5.43688 20.6047 5.45923 20.6215 5.48158L20.6885 5.51511C20.7053 5.55422 20.7221 5.58775 20.7388 5.62686C20.6662 5.62686 20.655 5.64363 20.5824 5.77773C20.5712 5.77773 20.56 5.77773 20.5544 5.77773C20.5321 5.77773 20.5041 5.77773 20.4818 5.77773C20.493 5.84478 20.5209 5.91743 20.5488 5.98448C20.4762 5.98448 20.465 5.98448 20.398 6.00124C20.4091 6.03477 20.4203 6.07388 20.4371 6.10741C20.4036 6.10741 20.3644 6.10741 20.3309 6.10741C20.3309 6.10741 20.2955 6.09996 20.2248 6.08506C20.1912 6.06271 20.1856 6.05153 20.18 6.04036C20.1633 6.02359 20.1353 6.00683 20.1074 6.00683C20.1074 6.04594 20.113 6.07947 20.1242 6.11858L20.1577 6.13535C20.1577 6.13535 20.18 6.19123 20.1856 6.21916L20.2136 6.25269C20.2136 6.25269 20.2248 6.28063 20.2303 6.29739C20.0292 6.30857 19.9342 6.21916 19.9342 6.21916C19.8336 6.25642 19.7796 6.28249 19.7721 6.29739C19.7721 6.29739 19.7777 6.32533 19.7833 6.33651C19.8168 6.36445 19.828 6.36445 19.8392 6.36445C19.9118 6.44267 19.9789 6.44267 20.0068 6.44267C20.0292 6.44267 20.0404 6.44267 20.0515 6.44267C20.1298 6.49855 20.2024 6.55443 20.275 6.61589C20.3086 6.68853 20.3309 6.75 20.3477 6.81705C20.4874 6.98469 20.7276 7.25849 20.5824 7.41494C20.5824 7.42612 20.5824 7.44288 20.5824 7.45406C20.5339 7.49131 20.4967 7.5118 20.4706 7.51552C20.4706 7.51552 20.4483 7.51552 20.4371 7.51552C20.3309 7.47082 20.2136 7.45964 20.1186 7.387C19.9957 7.37583 19.8951 7.37583 19.7945 7.37024C19.7051 7.35534 19.6529 7.34416 19.638 7.33671C19.5989 7.31995 19.5989 7.31995 19.5877 7.31995L19.5598 7.3423C19.5598 7.3423 19.5654 7.37024 19.571 7.38142C19.5095 7.40935 19.4481 7.40935 19.3922 7.40935L19.381 7.44847C19.4816 7.5714 19.4425 7.75021 19.5598 7.87314C19.5766 7.95695 19.5933 8.02959 19.6101 8.10782C19.6101 8.119 19.6101 8.13576 19.6101 8.14694C19.4928 8.26428 19.5542 8.36486 19.6101 8.45985L19.6325 8.48779C19.6436 8.52132 19.6492 8.53249 19.6492 8.54926C19.6492 8.56043 19.6492 8.57719 19.6548 8.58837C19.6269 8.63866 19.6213 8.65542 19.6548 8.77277C19.6939 8.78953 19.7274 8.78953 19.761 8.78953C19.8615 8.76718 19.9565 8.83982 20.0571 8.82305C20.0571 8.82305 20.1074 8.85099 20.208 8.90687C20.2471 8.95716 20.2695 9.01863 20.3253 9.05774C20.3253 9.04656 20.3365 9.02421 20.3421 9.01304L20.3086 9.00186C20.7668 8.72248 21.1356 8.59396 21.1356 8.59396C21.1244 8.54926 21.1132 8.50455 21.1076 8.45985C21.0368 8.3481 21.0126 8.23448 21.035 8.119C21.035 8.119 21.0462 8.06312 21.0462 8.04077C21.0685 8.04077 21.102 8.04077 21.1244 8.04077C21.1356 8.02401 21.1523 7.99607 21.1579 7.97372C21.1803 7.96254 21.2082 7.95695 21.2305 7.95137L21.2417 7.91784C21.3255 7.91225 21.4261 7.90108 21.4261 7.90108C21.4373 7.86196 21.4261 7.82285 21.4149 7.78373L21.4038 7.74462C21.3423 7.59375 21.3423 7.51552 21.3423 7.51552C21.3833 7.48945 21.4466 7.48572 21.5323 7.50435H21.5379C21.6236 7.54905 21.6757 7.57326 21.6943 7.57699C21.739 7.57699 21.7502 7.57699 21.767 7.57699C21.7781 7.57699 21.7949 7.57699 21.8061 7.57699C21.8061 7.50248 21.8117 7.45219 21.8228 7.42612C21.8675 7.42612 21.8731 7.42612 21.8843 7.42612C21.9123 7.42612 21.9737 7.43171 22.0072 7.31436C22.214 7.37583 22.2587 7.60493 22.4263 7.71109C22.4636 7.73344 22.4952 7.76697 22.5213 7.81167C22.7951 8.00166 23.298 8.35927 23.3539 8.6666C23.2794 8.6815 23.2365 8.70944 23.2254 8.75041C23.1192 8.77835 23.0242 8.73924 22.918 8.73365C22.918 8.75041 22.9348 8.76718 22.9348 8.78394C23.0354 8.84541 23.0969 8.95716 23.2086 9.00186C23.2645 9.00186 23.3148 9.00745 23.3707 9.01304C23.3539 8.96275 23.3427 8.91246 23.3315 8.86217C23.3707 8.83423 23.393 8.78394 23.4377 8.76159C23.4321 8.70571 23.4209 8.65542 23.4154 8.59954C23.4321 8.58278 23.4545 8.56602 23.4768 8.56043C23.4824 8.54367 23.488 8.51014 23.4768 8.48779C23.4601 8.44868 23.4545 8.43191 23.4489 8.42074C23.3986 8.42074 23.3818 8.42074 23.3651 8.42074C23.3315 8.39839 23.326 8.38721 23.326 8.37045C23.326 8.35927 23.326 8.34251 23.3204 8.33692C23.3483 8.31457 23.3818 8.32016 23.4154 8.32016C23.4936 8.35927 23.5103 8.38162 23.5383 8.41515C23.5439 8.33133 23.488 8.26987 23.4656 8.19723C23.2812 8.14135 23.1471 7.94578 23.1471 7.94578C23.041 7.94019 22.9851 7.83961 22.8901 7.81167C22.851 7.69433 22.7392 7.63845 22.6722 7.54346C22.661 7.54346 22.6498 7.54346 22.6442 7.53787C22.5921 7.44474 22.5381 7.40004 22.4822 7.40377C22.4599 7.37024 22.4487 7.33671 22.4375 7.30319L22.4487 7.26966C22.4599 7.23613 22.4599 7.23055 22.4543 7.22496C22.4096 7.14673 22.3872 7.10203 22.3872 7.09085C22.5157 7.0685 23.0019 7.5714 23.0075 7.57699C23.0633 7.63845 23.0633 7.63845 23.1416 7.64963C23.1471 7.6608 23.1639 7.68315 23.1695 7.69433C23.2533 7.8005 23.4042 7.82844 23.488 7.94019C23.6109 8.119 23.6445 8.34251 23.7618 8.5269C23.7841 8.5269 23.8121 8.53249 23.8344 8.53808C23.8791 8.60513 23.8959 8.65542 23.9127 8.7113C23.8903 8.7113 23.8736 8.7113 23.8512 8.7113C23.8512 8.70012 23.8456 8.68336 23.84 8.67219C23.8288 8.67219 23.8121 8.66101 23.8065 8.66101C23.8065 8.72806 23.8624 8.79512 23.9518 8.88452C23.9574 8.87334 23.9685 8.85099 23.9797 8.83982C24.0915 8.89569 24.0859 9.02421 24.1474 9.10803C24.1809 9.12479 24.1976 9.12479 24.2144 9.12479C24.2256 9.12479 24.2423 9.12479 24.2535 9.12479C24.261 9.06147 24.2647 9.02421 24.2647 9.01304C24.2647 9.01304 24.2535 8.97951 24.2535 8.96834C24.2423 8.94598 24.2312 8.91805 24.2312 8.8957L24.2591 8.87334C24.2591 8.87334 24.2982 8.90687 24.3094 8.92363C24.3373 8.92363 24.3429 8.92363 24.3541 8.92363C24.3653 8.89011 24.3578 8.83795 24.3317 8.76718C24.3317 8.76718 24.3597 8.76718 24.3709 8.76718L24.382 8.73365C24.3206 8.64425 24.3206 8.64425 24.2703 8.63307C24.2889 8.6815 24.3019 8.72248 24.3094 8.756C24.3094 8.756 24.2144 8.73924 23.9909 8.3928C23.9797 8.35368 23.9741 8.34251 23.9685 8.32574C23.9685 8.31457 23.9685 8.29781 23.9685 8.28663L23.9965 8.30898C24.0337 8.34623 24.0654 8.36858 24.0915 8.37603C24.0915 8.37603 24.1194 8.37603 24.1306 8.37603H24.1529C24.1529 8.34623 24.138 8.31457 24.1082 8.28104C24.1082 8.28104 24.1082 8.2531 24.1082 8.24193C24.2088 8.18605 24.2591 8.29781 24.3373 8.31457C24.3709 8.37045 24.3932 8.40211 24.4044 8.40956C24.4044 8.40956 24.4379 8.45985 24.4435 8.4822L24.4156 8.51014C24.4491 8.6219 24.5608 8.68895 24.5832 8.80629C24.5944 8.82864 24.6055 8.85658 24.6055 8.88452C24.6055 8.90128 24.6111 8.91246 24.6167 8.92363C24.6279 8.94598 24.6502 8.98324 24.6838 9.03539L24.7005 9.05774L24.7173 9.06892L24.7285 9.09127L24.7508 9.11362L24.762 9.13038C24.762 9.13038 24.7844 9.19185 24.7844 9.2142V9.23655V9.26449C24.7993 9.31291 24.8142 9.35203 24.8291 9.38183L24.8458 9.40418L24.8626 9.42094C24.8626 9.42094 24.8682 9.37624 24.8626 9.35389V9.3036C24.8626 9.3036 24.8402 9.24772 24.8291 9.21978C24.8291 9.20861 24.8235 9.19185 24.8179 9.18067C24.8179 9.15832 24.8179 9.15832 24.8291 9.15832H24.8402L24.857 9.18067L24.8682 9.20302L24.8849 9.21978C24.8849 9.21978 24.9185 9.26449 24.9352 9.28684L24.952 9.31478L24.9632 9.33713L24.9743 9.3483H24.9799C24.9799 9.3483 25.0246 9.35948 25.0358 9.37624C25.0637 9.38183 25.0637 9.38183 25.0693 9.38183V9.37065L25.0805 9.35948V9.33713L25.0693 9.31478C25.0507 9.27007 25.0414 9.23468 25.0414 9.20861V9.18626V9.16949C25.0637 9.16949 25.0917 9.18067 25.1084 9.19743C25.1196 9.2142 25.1364 9.24214 25.1476 9.2589C25.1643 9.27566 25.1811 9.3036 25.1978 9.32036L25.209 9.34271L25.2202 9.35948H25.2314L25.2481 9.37624C25.2873 9.37624 25.3264 9.38742 25.3655 9.38742C25.3599 9.36507 25.3487 9.33713 25.3431 9.31478V9.28684C25.3431 9.28684 25.3152 9.23096 25.3096 9.20861H25.332H25.3375H25.3487C25.3487 9.20861 25.3655 9.21978 25.4214 9.28125C25.4437 9.28684 25.4437 9.28684 25.4493 9.28684V9.27566V9.2589V9.24214L25.4605 9.24772C25.4661 9.26449 25.4772 9.28684 25.4884 9.3036V9.32595C25.5108 9.37438 25.5257 9.41908 25.5331 9.46006C25.5499 9.58858 25.5834 9.66122 25.5946 9.68916V9.71151C25.6169 9.74876 25.63 9.78973 25.6337 9.83444V9.8512V9.87355C25.6393 9.8959 25.6449 9.92384 25.6505 9.94619V9.96854C25.6505 10.0505 25.6467 10.0952 25.6393 10.1026V10.1194L25.6337 10.1418V10.1641C25.8516 10.2032 26.0304 10.2368 26.1813 10.2647C26.0304 10.2368 25.8516 10.2144 25.6449 10.1865C25.6449 10.1865 25.6728 10.3876 25.656 10.4323V10.4547L25.6449 10.4714H25.6393C25.6393 10.4714 25.6058 10.477 25.6002 10.4882H25.589H25.5834V10.4994L25.5611 10.5161L25.5443 10.4938L25.5275 10.4714L25.5052 10.4547C25.5052 10.4547 25.4437 10.4379 25.4214 10.4212H25.4102H25.399V10.4435C25.4363 10.4733 25.4642 10.4919 25.4828 10.4994C25.4828 10.4994 25.5052 10.5329 25.5108 10.5497V10.5776C25.5108 10.5776 25.5387 10.6223 25.5443 10.6391C25.5443 10.6558 25.5555 10.6838 25.5555 10.7005V10.7229L25.5666 10.7508C25.5834 10.857 25.6449 10.952 25.684 11.0526C25.7343 11.1643 25.7343 11.1699 25.7678 11.209C25.779 11.209 25.7846 11.209 25.7957 11.2146H25.8181C25.8293 11.1755 25.8181 11.142 25.8237 11.1084L25.8404 11.142C26.0043 11.5443 26.09 11.7752 26.0975 11.8349C26.0975 11.8349 26.0975 11.8628 26.0975 11.8684C26.0975 12.1198 26.2539 12.3154 26.3098 12.5501C26.3377 12.6786 26.2875 12.8127 26.3489 12.9412C26.4048 13.0586 26.4383 13.1591 26.4607 13.243V13.2765L26.6004 14.1314C26.5892 14.3549 26.578 14.5728 26.5557 14.7908C26.5221 14.2543 26.1925 13.7794 26.2316 13.2262C26.2316 13.1927 26.2316 13.1647 26.2316 13.1089C26.2316 13.0921 26.0192 11.3934 25.3264 10.4491C25.3208 10.4491 25.3152 10.4491 25.2705 10.4659C25.2593 10.4826 25.237 10.5106 25.2258 10.5273H25.209C24.857 10.3709 24.5608 10.0859 24.1585 10.0356C24.1921 10.2088 24.2423 10.3764 24.2591 10.5497C24.2368 10.5497 24.2088 10.5608 24.1865 10.5664C24.1697 10.5664 24.1529 10.5664 24.0971 10.5664C24.0244 10.4994 23.9797 10.3932 23.8791 10.3597C23.7897 10.3541 23.7003 10.3485 23.6109 10.3317C23.5886 10.287 23.5774 10.22 23.5495 10.1809C23.3874 9.99089 23.1304 9.99089 22.9404 9.85679C22.7281 9.70592 22.8733 9.40977 22.6889 9.24772C22.6889 9.22537 22.6889 9.19185 22.6834 9.16391C22.7225 9.14156 22.7672 9.09685 22.7839 9.05774C22.7132 9.00931 22.6424 8.9702 22.5716 8.9404C22.4599 8.9702 22.3053 8.99069 22.1078 9.00186C22.0799 9.03539 22.0352 9.0745 21.9905 9.09127C21.875 8.99069 21.7111 8.95902 21.4988 8.99627C21.4988 8.99627 21.4708 9.04656 21.4596 9.06892C21.3535 9.06892 21.2417 9.05774 21.1188 9.11362C21.1188 9.15832 21.102 9.21978 21.0853 9.2589C20.9903 9.28125 20.8841 9.25331 20.7947 9.3036C20.7835 9.3036 20.7724 9.3036 20.7221 9.29243C20.6997 9.29243 20.6662 9.28125 20.6382 9.27566C20.6382 9.27566 20.6382 9.27566 20.5824 9.27566C20.4036 9.27566 20.3644 9.24214 20.2918 9.18067C20.2695 9.1695 20.2359 9.15273 20.2136 9.13597C20.1465 9.25331 20.2024 9.38742 20.1633 9.51035C20.0348 9.52152 20.0348 9.52152 19.9286 9.51035C19.9454 9.6221 19.9621 9.73944 19.9733 9.85679C19.8839 9.85679 19.7889 9.8512 19.6995 9.89032C19.6995 10.0803 19.6772 10.2703 19.6883 10.4603C19.6883 10.5106 19.6995 10.5608 19.6995 10.6111C19.6213 10.6111 19.5486 10.6111 19.4704 10.6447C19.4592 10.9017 19.2692 10.9688 19.1631 10.9855C19.0904 10.9967 18.7608 11.8069 18.7608 11.8125C18.7384 11.8125 18.7105 11.8125 18.6881 11.8125L18.6155 11.8293C18.6155 11.8293 18.5652 11.8628 18.5428 11.874C18.5708 12.321 18.5149 12.3433 18.3417 12.4104C18.3305 12.4327 18.3249 12.4607 18.3137 12.483C18.3137 12.5333 18.3137 12.5892 18.3584 12.6507C18.5671 12.6879 18.6807 12.727 18.6993 12.768C18.6434 12.8798 18.6155 13.1256 18.6155 13.5056C18.6155 13.5335 18.6155 13.5671 18.6155 13.595C18.6155 13.6397 18.5615 13.7179 18.4534 13.8297C18.459 13.9358 18.5037 14.042 18.5205 14.1482C18.5205 14.1761 18.5205 14.2096 18.5205 14.3102C18.5205 14.3102 18.839 14.8578 19.1407 15.0199C19.124 15.1484 19.0904 15.5004 19.5654 15.5339C19.8895 16.1654 19.9062 16.1989 20.2024 16.1598C20.2303 16.1207 20.2583 16.0592 20.2695 16.0089C20.3644 15.9698 20.4706 16.0145 20.5712 15.9921C20.588 15.9921 20.5991 15.9921 20.6159 15.9921C20.6606 15.9921 20.737 15.9921 20.845 15.9921C20.886 16.0555 21.0443 16.0871 21.32 16.0871C21.4485 15.8301 21.5546 15.858 21.7893 15.9083C21.8005 15.9083 21.8117 15.9083 21.834 15.9083C21.834 15.9083 22.0352 15.7016 22.2028 15.8413C22.2214 16.0722 22.2773 16.2082 22.3704 16.2492C22.5548 16.2603 22.7337 16.2659 22.9069 16.2771C22.8901 16.3665 22.8789 16.4559 22.8622 16.5565C22.8175 16.6757 22.7318 16.9458 22.6051 17.3667C22.566 17.3779 22.5157 17.417 22.4934 17.4505C22.5157 17.4897 22.566 17.5288 22.6051 17.5455C22.6554 17.6629 22.6051 17.8137 22.7169 17.9087C22.6778 18.2775 22.8789 18.6463 22.6889 19.0095C22.6778 19.0375 22.6722 19.0654 22.6442 19.1548C22.6387 19.1995 22.6442 19.2666 22.6722 19.3057L22.119 20.2221C21.7726 20.4623 21.8452 21.2502 21.8452 21.2558C21.7279 21.4793 21.7167 21.5799 21.7111 21.6246C21.644 21.7419 21.5714 21.8593 21.4932 21.9934C21.4932 21.999 21.0909 23.0327 21.035 23.1892C21.0238 23.2003 21.0182 23.2115 20.9903 23.2339C20.9046 23.2786 20.8506 23.3326 20.8282 23.3959C20.8282 23.3959 20.8506 23.3959 20.8282 23.4462C20.8115 23.463 20.7891 23.4853 20.7779 23.5077C20.7779 23.53 20.7835 23.5635 20.7891 23.5859C20.845 23.5859 20.9009 23.5915 21.007 23.5859C21.0517 23.5691 21.1132 23.5468 21.1579 23.5356C21.225 23.5412 21.292 23.5468 21.4038 23.5188C22.024 22.9321 22.8007 22.5522 23.4154 21.9599L24.4994 20.63C22.214 24.0553 18.3193 26.3127 13.905 26.3127L14.0056 26.2289ZM25.2705 19.4174C25.2705 19.4174 25.2873 19.3783 25.2984 19.356C25.332 19.071 25.4996 18.8363 25.5555 18.5625C25.5555 18.5513 25.5666 18.5346 25.5778 18.5066C25.6952 18.244 25.846 17.9981 26.0025 17.7579C25.7957 18.3334 25.5555 18.8866 25.2705 19.423V19.4174Z" fill="black"/>
</g>
<defs>
<clipPath id="clip0_11053_558">
<rect width="27" height="27" fill="white" transform="translate(0.5)"/>
</clipPath>
</defs>
</svg>
