<svg width="24" height="12" viewBox="0 0 24 12" fill="none" xmlns="http://www.w3.org/2000/svg">
<path d="M0 12V10.425C0 9.70833 0.366667 9.125 1.1 8.675C1.83333 8.225 2.8 8 4 8C4.21667 8 4.425 8.00433 4.625 8.013C4.825 8.02167 5.01667 8.04233 5.2 8.075C4.96667 8.425 4.79167 8.79167 4.675 9.175C4.55833 9.55833 4.5 9.95833 4.5 10.375V12H0ZM6 12V10.375C6 9.84167 6.146 9.354 6.438 8.912C6.73 8.47 7.14233 8.08267 7.675 7.75C8.20767 7.41733 8.84533 7.16733 9.588 7C10.3307 6.83267 11.1347 6.74933 12 6.75C12.8833 6.75 13.696 6.83333 14.438 7C15.18 7.16667 15.8173 7.41667 16.35 7.75C16.8827 8.08333 17.291 8.471 17.575 8.913C17.859 9.355 18.0007 9.84233 18 10.375V12H6ZM19.5 12V10.375C19.5 9.94167 19.446 9.53333 19.338 9.15C19.23 8.76667 19.0673 8.40833 18.85 8.075C19.0333 8.04167 19.221 8.021 19.413 8.013C19.605 8.005 19.8007 8.00067 20 8C21.2 8 22.1667 8.221 22.9 8.663C23.6333 9.105 24 9.69233 24 10.425V12H19.5ZM4 7C3.45 7 2.97933 6.80433 2.588 6.413C2.19667 6.02167 2.00067 5.55067 2 5C2 4.43333 2.196 3.95833 2.588 3.575C2.98 3.19167 3.45067 3 4 3C4.56667 3 5.04167 3.19167 5.425 3.575C5.80833 3.95833 6 4.43333 6 5C6 5.55 5.80833 6.021 5.425 6.413C5.04167 6.805 4.56667 7.00067 4 7ZM20 7C19.45 7 18.9793 6.80433 18.588 6.413C18.1967 6.02167 18.0007 5.55067 18 5C18 4.43333 18.196 3.95833 18.588 3.575C18.98 3.19167 19.4507 3 20 3C20.5667 3 21.0417 3.19167 21.425 3.575C21.8083 3.95833 22 4.43333 22 5C22 5.55 21.8083 6.021 21.425 6.413C21.0417 6.805 20.5667 7.00067 20 7ZM12 6C11.1667 6 10.4583 5.70833 9.875 5.125C9.29167 4.54167 9 3.83333 9 3C9 2.15 9.29167 1.43767 9.875 0.863C10.4583 0.288333 11.1667 0.000666667 12 0C12.85 0 13.5627 0.287667 14.138 0.863C14.7133 1.43833 15.0007 2.15067 15 3C15 3.83333 14.7127 4.54167 14.138 5.125C13.5633 5.70833 12.8507 6 12 6Z" fill="white"/>
</svg>
