<svg width="47" height="36" viewBox="0 0 47 36" fill="none" xmlns="http://www.w3.org/2000/svg">
<g clip-path="url(#clip0_11053_550)">
<path d="M18.271 18.1671C18.3208 18.0378 18.2928 17.8959 18.2959 17.7602C18.2959 17.5836 18.3954 17.5363 18.551 17.5331C18.7159 17.5331 18.8279 17.5741 18.8248 17.7665C18.8248 18.104 18.8217 18.4447 18.8248 18.7821C18.8248 18.9682 18.7408 19.0313 18.5666 19.0345C18.3985 19.0345 18.2741 18.9871 18.299 18.7979C18.3301 18.5614 18.2119 18.533 18.0283 18.5519C17.9598 18.5582 17.8883 18.5582 17.8167 18.5519C17.6673 18.533 17.5833 18.574 17.6051 18.7506C17.6331 18.9556 17.5366 19.0408 17.3313 19.0376C17.129 19.0376 17.073 18.9367 17.0761 18.7537C17.0824 18.432 17.0824 18.1103 17.0761 17.7918C17.073 17.6088 17.1539 17.5395 17.3313 17.5363C17.518 17.5331 17.6113 17.5962 17.6082 17.7981C17.6082 17.9211 17.5802 18.0536 17.6393 18.186C17.7327 18.1387 17.7109 18.0693 17.7109 18.0157C17.7109 17.4543 17.7109 16.8929 17.714 16.3315C17.714 16.2053 17.6798 16.117 17.5864 16.0287C17.0637 15.5366 16.541 15.0478 16.0338 14.54C15.8377 14.3444 15.595 14.3823 15.3679 14.3444C15.2403 14.3224 15.315 14.4454 15.3274 14.499C15.4021 14.827 15.4208 15.1519 15.3088 15.4736C15.0785 16.1296 14.6211 16.5302 13.9428 16.6153C13.2956 16.6973 12.7635 16.4355 12.3995 15.8899C12.0261 15.3285 12.0199 14.7387 12.3559 14.1489C12.3808 14.1016 12.4088 14.0574 12.4368 14.0101C12.4399 14.0038 12.4368 13.9912 12.4368 13.9502C11.7989 13.8808 11.1549 13.8114 10.5139 13.742C10.4703 13.7389 10.4267 13.742 10.3832 13.7357C10.2338 13.7231 10.0503 13.6505 9.94757 13.7136C9.82933 13.7862 9.91646 13.9943 9.9009 14.1394C9.89468 14.1899 9.90401 14.2561 9.83556 14.2656C9.74221 14.2782 9.75465 14.1993 9.74221 14.1394C9.7142 13.9912 9.83244 13.7893 9.67687 13.6979C9.54929 13.6222 9.36882 13.6379 9.21325 13.6222C8.74029 13.5748 8.26733 13.5338 7.79438 13.4802C7.62013 13.4613 7.56101 13.5086 7.57035 13.6884C7.57657 13.7893 7.6388 13.9849 7.505 13.9817C7.34631 13.9817 7.41788 13.783 7.4241 13.6789C7.43966 13.4739 7.36498 13.414 7.16896 13.3919C5.53228 13.2153 3.8956 13.0765 2.25892 12.9314C1.86376 12.8967 1.46859 12.881 1.07342 12.8873C0.914734 12.8904 0.818276 12.8337 0.756045 12.6728C0.438667 11.8591 0.186631 11.0264 0.018607 10.1685C0.00304928 10.0897 -6.22757e-05 10.0108 -0.00317383 9.9288C-0.00317383 9.89726 0.0123839 9.86257 0.0310532 9.79002C0.158627 9.98873 0.192854 10.1843 0.258197 10.3672C0.326651 10.5596 0.398216 10.752 0.463559 10.9444C0.603579 11.3576 0.74671 11.7676 0.880507 12.1839C0.930292 12.3448 1.01742 12.3984 1.18233 12.4047C4.37789 12.5782 7.57657 12.758 10.7721 12.9409C13.6348 13.1081 16.4974 13.2815 19.36 13.455C19.5343 13.4645 19.6245 13.4487 19.6494 13.2374C19.7054 12.7012 19.9108 12.206 20.1908 11.6982C19.6432 11.6414 19.1235 11.5878 18.6039 11.5342C17.073 11.3796 15.5421 11.2283 14.0113 11.0674C13.9241 11.0579 13.7406 11.1336 13.7623 10.9318C13.7841 10.7488 13.9459 10.8435 14.0393 10.8435C16.2298 10.8372 18.4203 10.8372 20.6109 10.8435C20.8007 10.8435 20.9345 10.7898 21.0714 10.6542C21.591 10.1464 22.2102 9.82472 22.9259 9.70486C23.0877 9.67963 23.153 9.62601 23.1561 9.43993C23.2215 6.85363 23.2961 4.27049 23.3677 1.68419C23.3801 1.25524 23.4019 0.829448 23.4175 0.400501C23.4237 0.268032 23.4362 0.135563 23.4953 -0.00952148C23.6197 0.110331 23.6104 0.25857 23.6135 0.391039C23.654 1.42556 23.6913 2.45692 23.7224 3.49144C23.7815 5.48794 23.8344 7.48443 23.8842 9.48093C23.8873 9.6134 23.9247 9.65755 24.0554 9.67648C24.7959 9.78371 25.4151 10.1433 25.9534 10.6511C26.1028 10.7898 26.249 10.8403 26.445 10.8403C28.5578 10.834 30.6674 10.8372 32.7801 10.8372C32.833 10.8372 32.8859 10.8308 32.9388 10.8372C33.0073 10.8498 33.1069 10.7867 33.1255 10.9192C33.1442 11.0548 33.0508 11.0548 32.9606 11.0611C32.4877 11.1084 32.0147 11.1589 31.5449 11.2093C30.0233 11.3639 28.5018 11.5216 26.9802 11.6761C26.9304 11.6824 26.8775 11.6919 26.806 11.7045C27.058 12.2407 27.254 12.7832 27.3598 13.3541C27.3847 13.4928 27.4874 13.4518 27.5652 13.4487C28.6356 13.3919 29.709 13.332 30.7794 13.2721C32.5001 13.1743 34.2208 13.0765 35.9415 12.9756C38.2503 12.84 40.559 12.7043 42.8678 12.5687C43.8417 12.5119 44.8156 12.4457 45.7927 12.4016C45.9887 12.3921 46.0696 12.3132 46.1256 12.1398C46.3434 11.4743 46.5737 10.8088 46.7977 10.1433C46.835 10.0297 46.8786 9.91618 46.9346 9.76479C47.0311 9.94142 46.9937 10.0897 46.9439 10.2095C46.6328 11.0043 46.4834 11.8528 46.1567 12.6413C46.0758 12.8368 45.9638 12.9062 45.7647 12.9093C44.3925 12.944 43.0358 13.1711 41.6667 13.2658C40.9293 13.3162 40.195 13.3982 39.4575 13.4455C39.2771 13.4581 39.2242 13.5118 39.2491 13.6758C39.2522 13.701 39.2553 13.7294 39.2491 13.7546C39.2335 13.8335 39.2988 13.9691 39.1713 13.9723C39.0437 13.9723 39.0842 13.8303 39.0966 13.7578C39.137 13.4771 39.0281 13.4518 38.7792 13.4897C38.2503 13.5685 37.712 13.6095 37.1768 13.6442C36.9714 13.6569 36.9092 13.7231 36.9216 13.9281C36.9278 14.0322 36.9994 14.2309 36.8407 14.2309C36.7069 14.2309 36.766 14.0353 36.7754 13.9376C36.8034 13.6695 36.7567 13.5559 36.4424 13.6032C35.8295 13.701 35.2103 13.7515 34.5817 13.8209C35.0547 14.9595 34.98 15.606 34.3266 16.1675C33.7758 16.6374 32.9917 16.6847 32.3881 16.281C31.744 15.8521 31.5262 15.155 31.772 14.2813C31.3675 14.3224 30.9879 14.3381 30.6767 14.6724C30.2411 15.1361 29.7619 15.5587 29.3014 16.0003C29.2299 16.0665 29.1645 16.1265 29.1645 16.2431C29.1707 16.8487 29.1645 17.4574 29.1707 18.063C29.1707 18.0946 29.1863 18.1229 29.2112 18.2081C29.3077 18.0315 29.2703 17.8895 29.2703 17.7602C29.2703 17.571 29.3668 17.5174 29.5379 17.5142C29.709 17.5142 29.8055 17.571 29.8024 17.7602C29.7993 18.0977 29.7993 18.4383 29.8024 18.7758C29.8024 18.9682 29.7028 19.0155 29.5348 19.0187C29.3605 19.0187 29.2548 18.9556 29.2765 18.7695C29.317 18.4289 29.0712 18.5519 28.9187 18.5361C28.7507 18.5172 28.5982 18.514 28.6387 18.7695C28.6667 18.9556 28.5547 19.0187 28.3835 19.0187C28.2155 19.0187 28.1128 18.9682 28.1159 18.779C28.119 18.432 28.1159 18.0819 28.1159 17.735C28.1159 17.5552 28.2279 17.5174 28.3773 17.5174C28.5298 17.5174 28.6387 17.5552 28.6418 17.735C28.6418 17.8738 28.6418 18.0126 28.6418 18.1608C28.788 18.1324 28.7445 18.0441 28.7445 17.9873C28.7476 17.4259 28.7445 16.8645 28.7476 16.3031C28.7476 16.1864 28.7196 16.1012 28.6324 16.0224C28.4489 15.8584 28.2622 15.6912 28.0941 15.5083C27.9852 15.3916 27.9012 15.4042 27.7799 15.483C27.2883 15.8016 26.8433 16.1801 26.4046 16.5649C25.6765 17.202 24.8644 17.653 23.8967 17.776C23.8095 17.7886 23.7255 17.7855 23.7286 17.9211C23.7349 18.3216 23.7286 18.7191 23.7286 19.1606C23.8873 19.0408 23.8313 18.9083 23.8313 18.8011C23.8313 18.5992 23.9278 18.5393 24.1082 18.5393C24.2887 18.5393 24.3665 18.615 24.3634 18.7948C24.3603 19.1322 24.3634 19.4729 24.3634 19.8103C24.3634 19.987 24.27 20.0406 24.1114 20.0406C23.9651 20.0406 23.8189 20.0154 23.8407 19.8356C23.878 19.5517 23.7286 19.5486 23.5202 19.5517C23.3241 19.5549 23.1468 19.5328 23.1966 19.8293C23.2183 19.9712 23.1219 20.0311 22.985 20.0406C22.7858 20.0532 22.6645 19.9996 22.6707 19.763C22.68 19.4413 22.68 19.1196 22.6707 18.8011C22.6676 18.5992 22.7609 18.5393 22.9476 18.5393C23.125 18.5393 23.2059 18.6118 23.2028 18.7948C23.2028 18.902 23.1717 19.0187 23.2588 19.1638C23.349 18.9178 23.2961 18.7001 23.3055 18.4888C23.3148 18.2743 23.377 18.0157 23.2806 17.8612C23.1779 17.694 22.8947 17.7886 22.6925 17.7539C22.1075 17.6593 21.6128 17.3818 21.1523 17.0317C20.5891 16.6027 20.0414 16.1548 19.4876 15.7164C19.4191 15.6628 19.3382 15.6218 19.2729 15.5619C19.0706 15.3758 18.9337 15.442 18.7221 15.6029C18.2803 15.9467 18.1154 16.3535 18.1745 16.9086C18.2181 17.3187 18.1838 17.7382 18.1838 18.1545C18.2119 18.1545 18.2367 18.1545 18.2648 18.1545L18.271 18.1671ZM22.2662 11.6761C21.927 11.6162 21.5848 11.6635 21.2425 11.6477C21.1616 11.6446 21.1118 11.6824 21.0714 11.7487C20.9376 11.9852 20.7976 12.2218 20.6918 12.4993C21.0745 12.534 21.4385 12.5656 21.8026 12.6034C21.9364 12.6192 21.9613 12.5372 21.9924 12.4394C22.0795 12.1808 22.1729 11.9221 22.2631 11.6635C22.2102 11.9064 22.1698 12.1492 22.1013 12.3858C22.0453 12.5813 22.0453 12.6949 22.2973 12.6886C22.4965 12.6854 22.6987 12.7201 22.8979 12.739C23.4113 12.7927 23.4175 12.7958 23.4113 12.2691C23.4081 12.0515 23.5108 11.7644 23.3677 11.632C23.2277 11.5027 22.9508 11.591 22.7329 11.5973C22.5774 11.6036 22.4 11.5184 22.2631 11.673L22.2662 11.6761ZM24.13 11.5941C23.5762 11.5941 23.5699 11.5941 23.5762 12.001C23.5793 12.247 23.4704 12.5876 23.6166 12.717C23.8064 12.8841 24.1331 12.7296 24.3976 12.698C24.8924 12.6381 24.8924 12.6255 24.7928 12.1398C24.7202 11.776 24.4982 11.5941 24.1269 11.5941H24.13ZM22.8387 14.7481C22.8387 15.1077 23.0939 15.3821 23.4424 15.3916C23.7846 15.401 24.1082 15.0762 24.102 14.7324C24.0989 14.3823 23.8282 14.1142 23.4766 14.111C23.1126 14.111 22.8418 14.3791 22.8387 14.7481ZM26.4637 12.4552C26.2251 11.8811 25.8258 11.5941 25.2657 11.5941C25.188 11.5941 25.1071 11.5973 25.0293 11.5941C24.9173 11.5878 24.9017 11.632 24.9266 11.7361C24.9826 11.9758 25.0293 12.2218 25.0759 12.4646C25.0946 12.5656 25.1351 12.6192 25.2502 12.6034C25.6485 12.5498 26.0467 12.5056 26.4637 12.4552ZM30.2567 14.6378C29.9704 14.6882 29.625 14.7292 29.2952 14.8648C29.2268 14.8932 29.1676 14.9185 29.1707 15.0099C29.1739 15.2622 29.1707 15.5114 29.1707 15.7637C29.1956 15.7732 29.2174 15.7827 29.2423 15.7921C29.5846 15.401 29.9269 15.0099 30.2567 14.6346V14.6378ZM17.77 15.8205V15.3695C17.77 14.9185 17.77 14.9153 17.3375 14.8081C17.0855 14.745 16.8428 14.6283 16.5067 14.6409C16.9455 15.0509 17.3375 15.4136 17.77 15.8205ZM18.2181 15.0509V15.7953C18.299 15.7227 18.355 15.6786 18.4048 15.6281C18.5106 15.5146 18.7502 15.4042 18.7035 15.2969C18.635 15.1361 18.411 15.0667 18.2212 15.0509H18.2181ZM28.7382 15.0509C28.3773 15.1897 28.3203 15.3832 28.5671 15.6313C28.6138 15.6754 28.6449 15.748 28.7382 15.748V15.0509Z" fill="black"/>
<path d="M22.8769 23.2517L24.6756 23.3535L24.3751 22.275L23.2878 22.2135L22.8769 23.2517Z" fill="black"/>
<path d="M22.2338 24.8675L25.1385 25.0319L24.8411 23.9537L22.6479 23.8295L22.2338 24.8675Z" fill="black"/>
<path d="M25.4694 26.2321L21.7757 26.023L17.9277 35.6962L28.2509 36.2806L25.4694 26.2321Z" fill="black"/>
<path d="M24.2638 21.8739L24.1578 21.4889L23.5893 21.4567L23.4405 21.8273L24.2638 21.8739Z" fill="black"/>
</g>
<defs>
<clipPath id="clip0_11053_550">
<rect width="47" height="36" fill="white"/>
</clipPath>
</defs>
</svg>
