<svg width="14" height="13" viewBox="0 0 14 13" fill="none" xmlns="http://www.w3.org/2000/svg">
<path d="M12.3333 4.33337H8.59192L9.34059 2.08871C9.47525 1.68337 9.40725 1.23404 9.15725 0.887374C8.90725 0.540707 8.50192 0.333374 8.07459 0.333374H6.99992C6.80192 0.333374 6.61459 0.421374 6.48725 0.573374L3.35392 4.33337H1.66659C0.931252 4.33337 0.333252 4.93137 0.333252 5.66671V11.6667C0.333252 12.402 0.931252 13 1.66659 13H10.5379C10.8092 12.9991 11.0738 12.9159 11.2967 12.7614C11.5197 12.6069 11.6905 12.3884 11.7866 12.1347L13.6246 7.23404C13.6525 7.15919 13.6667 7.07993 13.6666 7.00004V5.66671C13.6666 4.93137 13.0686 4.33337 12.3333 4.33337ZM1.66659 5.66671H2.99992V11.6667H1.66659V5.66671ZM12.3333 6.87937L10.5379 11.6667H4.33325V5.24137L7.31192 1.66671H8.07592L7.03459 4.78871C7.00078 4.88892 6.99135 4.99574 7.00708 5.10033C7.02281 5.20491 7.06324 5.30423 7.12503 5.39007C7.18681 5.4759 7.26817 5.54577 7.36235 5.59388C7.45653 5.64199 7.56083 5.66696 7.66659 5.66671H12.3333V6.87937Z" fill="white"/>
</svg>
