<svg width="30" height="29" viewBox="0 0 30 29" fill="none" xmlns="http://www.w3.org/2000/svg">
<g clip-path="url(#clip0_11053_576)">
<path d="M11.705 24.4512C11.705 23.0442 11.7015 21.6336 11.7085 20.2266C11.7085 19.9955 11.6459 19.9231 11.4094 19.9265C10.7904 19.9369 10.7904 19.9265 10.7904 19.3058C10.7904 18.5919 10.7973 17.878 10.7869 17.1676C10.7869 16.9745 10.8356 16.9055 11.0373 16.9055C11.705 16.8986 11.6876 16.8917 11.7085 16.2158C11.7259 15.6881 11.6737 15.1605 11.7015 14.6328C11.712 14.4328 11.625 14.3604 11.4372 14.3707C11.3746 14.3707 11.312 14.3707 11.2494 14.3707C10.7834 14.388 10.766 14.3845 10.7904 13.9362C10.8565 12.7636 10.5748 11.629 10.4357 10.4771C10.3418 9.70119 10.1575 8.93558 10.1401 8.14928C10.1401 8.00788 10.0601 7.99754 9.95228 7.99754C9.71232 7.99754 9.47236 7.99064 9.23241 7.99754C9.07591 8.00444 9.00984 7.95271 9.01331 7.78717C9.02027 7.39057 9.02375 6.99397 9.01331 6.59737C9.00984 6.41459 9.08982 6.37666 9.25327 6.37666C9.9801 6.38355 10.7104 6.37321 11.4372 6.38355C11.6563 6.38355 11.7154 6.32148 11.6772 6.10766C11.5972 5.63864 11.552 5.16617 11.4616 4.69715C11.4129 4.44884 11.5068 4.4247 11.7189 4.4247C12.5988 4.43505 13.4751 4.42125 14.355 4.43505C14.6019 4.4385 14.6923 4.36607 14.6645 4.12466C14.6471 3.98672 14.654 3.84187 14.6645 3.70393C14.6784 3.46252 14.6506 3.26594 14.4419 3.07626C14.1602 2.82106 14.2193 2.34514 14.508 2.08649C14.8001 1.82439 15.2383 1.83474 15.52 2.11063C15.7947 2.37963 15.8156 2.8521 15.5269 3.1073C15.36 3.2556 15.3078 3.40389 15.3252 3.61081C15.3391 3.78669 15.3426 3.96258 15.3252 4.13846C15.3009 4.36952 15.3774 4.44194 15.6173 4.4385C16.4972 4.4247 17.3735 4.4385 18.2534 4.42815C18.4933 4.42815 18.5803 4.46608 18.5246 4.73163C18.4307 5.18686 18.3925 5.65588 18.3125 6.11456C18.2743 6.33527 18.3473 6.387 18.5594 6.38355C19.2793 6.37321 19.9957 6.38355 20.7156 6.37666C20.9103 6.37666 20.9833 6.43528 20.9764 6.63186C20.9625 7.01811 20.9694 7.40781 20.9764 7.79407C20.9764 7.94236 20.9277 8.00099 20.7747 7.99754C20.5278 7.99064 20.2774 7.99754 20.0305 7.99754C19.9157 7.99754 19.8531 8.02168 19.8496 8.15963C19.8218 9.20113 19.5923 10.2185 19.4462 11.2428C19.3071 12.2118 19.1715 13.1775 19.2063 14.1569C19.2132 14.35 19.1506 14.3845 18.9698 14.3776C18.2951 14.3569 18.2951 14.3638 18.2951 15.0225C18.2951 15.5674 18.2986 16.1123 18.2882 16.6572C18.2847 16.8538 18.3542 16.9124 18.549 16.9124C19.2132 16.9124 19.2132 16.9227 19.2132 17.5918C19.2132 18.2884 19.2063 18.9816 19.2167 19.6782C19.2167 19.8679 19.175 19.9369 18.9698 19.9369C18.2882 19.9369 18.2882 19.9438 18.2882 20.6094C18.2882 23.3028 18.2882 25.9962 18.2916 28.6897C18.2916 28.9276 18.2325 29 17.9821 29C15.986 28.9897 13.9863 28.9897 11.9902 29C11.7502 29 11.6946 28.9345 11.6946 28.7035C11.705 27.286 11.698 25.8686 11.698 24.4512H11.705ZM15.0157 9.1425C14.6158 9.1425 14.2159 9.14595 13.8194 9.1425C13.6768 9.1425 13.6316 9.18389 13.6455 9.32528C13.729 10.2288 13.809 11.1289 13.882 12.0325C13.8959 12.2015 13.9689 12.2498 14.1359 12.2498C14.7132 12.2394 15.2904 12.2394 15.8643 12.2498C16.052 12.2532 16.1077 12.1808 16.1216 12.0084C16.1946 11.1152 16.2711 10.2219 16.3546 9.32873C16.3685 9.18044 16.3198 9.14595 16.1842 9.14595C15.7947 9.15285 15.4052 9.14595 15.0122 9.14595L15.0157 9.1425ZM15.0157 5.09719C14.1637 5.09719 13.3117 5.10064 12.4597 5.09375C12.2545 5.09375 12.1919 5.15237 12.2336 5.35585C12.2892 5.63174 12.3275 5.91108 12.3623 6.19043C12.3797 6.32838 12.4214 6.39045 12.5744 6.39045C14.1915 6.387 15.8051 6.387 17.4222 6.39045C17.5718 6.39045 17.6205 6.33527 17.6378 6.19388C17.6726 5.91453 17.7074 5.63519 17.7665 5.35929C17.8187 5.12823 17.7213 5.0903 17.5196 5.09375C16.685 5.10064 15.8503 5.09375 15.0157 5.09375V5.09719ZM18.0656 9.1425C17.7909 9.1425 17.5161 9.1494 17.2414 9.1425C17.0988 9.13905 17.0362 9.17354 17.0258 9.32873C16.9528 10.2323 16.8728 11.1324 16.7858 12.036C16.7684 12.2049 16.8276 12.2498 16.991 12.2463C17.4535 12.2394 17.9126 12.2325 18.3751 12.2463C18.5768 12.2532 18.6533 12.1911 18.6777 11.9911C18.7994 11.1014 18.9315 10.215 19.0741 9.32873C19.1019 9.15975 19.0359 9.13561 18.8933 9.13905C18.6185 9.14595 18.3438 9.13905 18.0691 9.13905L18.0656 9.1425ZM11.9276 9.1425C11.6424 9.1425 11.3607 9.14595 11.0756 9.1425C10.9469 9.1425 10.9086 9.18044 10.9295 9.31494C11.0721 10.2254 11.2077 11.1393 11.3399 12.0532C11.3607 12.1911 11.4094 12.2498 11.5589 12.2463C12.0458 12.2394 12.5327 12.2394 13.023 12.2463C13.1656 12.2463 13.2386 12.2118 13.2247 12.0532C13.1413 11.1427 13.0578 10.2323 12.9813 9.32184C12.9674 9.1632 12.8909 9.13905 12.7587 9.1425C12.484 9.1494 12.2093 9.1425 11.9345 9.1425H11.9276Z" fill="black"/>
<path d="M3.66473 0.00317383C3.85253 0.00317383 3.99511 0.0859423 4.06814 0.258377C4.1516 0.448054 4.10292 0.61704 3.95686 0.765334C3.49781 1.23435 3.08745 1.74131 2.73621 2.2931C0.559207 5.7073 1.03216 10.2044 3.87687 13.1013C3.90817 13.1323 3.93947 13.1634 3.97077 13.1944C4.14813 13.3979 4.15508 13.6427 3.98815 13.8117C3.81775 13.9841 3.53258 13.991 3.34479 13.8014C2.97964 13.4393 2.64579 13.0496 2.34671 12.6357C-0.383232 8.86285 -0.0563346 3.76224 3.13266 0.361837C3.28219 0.206646 3.40739 0.00662251 3.66473 0.00317383Z" fill="black"/>
<path d="M29.5001 7.19398C29.4618 9.56667 28.5646 11.7911 26.7945 13.6672C26.7632 13.6982 26.7319 13.7292 26.7006 13.7603C26.4676 13.9844 26.2102 14.0086 26.019 13.8189C25.8416 13.643 25.8451 13.3775 26.0642 13.1637C26.9649 12.2842 27.6395 11.2496 28.0499 10.0736C29.2601 6.6146 28.582 3.53147 26.1024 0.827702C26.0051 0.720792 25.9077 0.627678 25.9007 0.469038C25.8938 0.282809 25.9564 0.137964 26.1233 0.0517472C26.2972 -0.0344699 26.4711 -0.0206752 26.6171 0.113824C26.944 0.413859 27.2327 0.748382 27.5004 1.10015C28.8289 2.84518 29.4931 4.81093 29.5036 7.19053L29.5001 7.19398Z" fill="black"/>
<path d="M26.9544 6.9767C26.937 8.85278 26.2867 10.4806 25.0139 11.8669C24.9548 11.9325 24.8922 11.998 24.8261 12.0532C24.6313 12.2118 24.3914 12.2049 24.2245 12.0359C24.061 11.8738 24.0436 11.6566 24.2001 11.4634C24.3253 11.3048 24.4748 11.1634 24.6035 11.0082C26.6518 8.59068 26.5684 5.05233 24.4122 2.72792C24.3531 2.66239 24.2905 2.60032 24.2314 2.53479C24.0471 2.32097 24.0506 2.06922 24.2384 1.90023C24.4122 1.74159 24.6696 1.75539 24.8574 1.94162C25.5981 2.67274 26.1441 3.52801 26.5093 4.49709C26.8083 5.29719 26.9544 6.12487 26.9544 6.9767Z" fill="black"/>
<path d="M3.04565 6.71809C3.07695 5.03858 3.74466 3.37287 5.0905 1.98305C5.31655 1.75199 5.57737 1.7244 5.76864 1.90028C5.96339 2.08306 5.95296 2.33137 5.72343 2.57277C4.49931 3.86603 3.87333 5.3869 3.9255 7.16642C3.97418 8.76317 4.57581 10.1392 5.66779 11.3048C5.69909 11.3359 5.73039 11.3669 5.76169 11.398C5.94948 11.6083 5.95296 11.8601 5.77212 12.036C5.59476 12.2084 5.33046 12.2015 5.12876 12.0015C4.60711 11.4807 4.17589 10.891 3.83856 10.2358C3.30995 9.20805 3.04913 8.11136 3.04913 6.71465L3.04565 6.71809Z" fill="black"/>
<path d="M24.4122 6.92839C24.3983 8.20441 23.9775 9.2735 23.1255 10.1736C22.9029 10.4081 22.6386 10.4426 22.4474 10.2736C22.2422 10.0943 22.2456 9.83219 22.4891 9.58043C23.894 8.12854 23.8975 5.79033 22.4543 4.33498C22.2561 4.13496 22.2526 3.87286 22.423 3.70042C22.6038 3.51764 22.8751 3.52454 23.0803 3.73836C23.9601 4.63847 24.3914 5.72135 24.4122 6.93184V6.92839Z" fill="black"/>
<path d="M7.28147 3.56934C7.43448 3.58658 7.5875 3.64521 7.66053 3.82454C7.74051 4.01767 7.69878 4.1832 7.55272 4.3315C7.1215 4.77638 6.79808 5.28678 6.62767 5.8834C6.24165 7.25598 6.5303 8.47682 7.48317 9.53901C7.60489 9.67351 7.72313 9.80456 7.69878 9.99769C7.67792 10.1701 7.58054 10.2943 7.41709 10.3495C7.22235 10.4115 7.05194 10.3598 6.90936 10.2115C6.28339 9.55625 5.85216 8.7941 5.68523 7.90778C5.40702 6.41795 5.75131 5.07986 6.74591 3.91765C6.97196 3.6521 7.09715 3.57278 7.28147 3.56934Z" fill="black"/>
</g>
<defs>
<clipPath id="clip0_11053_576">
<rect width="29" height="29" fill="white" transform="translate(0.5)"/>
</clipPath>
</defs>
</svg>
