<svg width="26" height="20" viewBox="0 0 26 20" fill="none" xmlns="http://www.w3.org/2000/svg">
<g clip-path="url(#clip0_11053_409)">
<path d="M1.46525 0.0591725C0.925424 0.238013 0.39661 0.707471 0.14322 1.25517L0 1.55697V18.4574L0.165254 18.8039C0.374576 19.2287 0.79322 19.6534 1.21186 19.8546L1.52034 19.9999H24.4797L24.7881 19.8546C25.2068 19.6534 25.6254 19.2287 25.8347 18.8039L26 18.4574V1.55697L25.8347 1.21046C25.6254 0.785714 25.2068 0.360967 24.7881 0.15977L24.4797 0.0144622L13.0771 0.00328468C3.75678 -0.00789287 1.64153 0.00328468 1.46525 0.0591725ZM24.4246 0.897489C24.7 0.975732 25.0525 1.33341 25.1297 1.61285C25.2178 1.91465 25.2178 18.0998 25.1297 18.4015C25.0525 18.681 24.7 19.0387 24.4246 19.1169C24.1271 19.2063 1.87288 19.2063 1.57542 19.1169C1.3 19.0387 0.947458 18.681 0.870339 18.4015C0.79322 18.0998 0.782203 1.91465 0.870339 1.62403C0.947458 1.35577 1.25593 1.02044 1.52034 0.931022C1.69661 0.863957 3.41525 0.852779 12.9669 0.852779C21.0534 0.841601 24.2703 0.852779 24.4246 0.897489Z" fill="white"/>
<path d="M18.178 4.00497C17.9797 4.06086 17.8585 4.12793 17.7043 4.31794C17.3518 4.70916 17.3518 4.74269 17.3187 6.95585L17.2856 8.94545L15.6551 9.95143C13.606 11.2145 13.7602 11.1139 13.595 11.3598C13.4628 11.561 13.4518 11.6057 13.4407 12.2205L13.4187 12.8688L13.628 12.8241C14.6526 12.6005 17.2636 12.0193 17.2856 12.0193C17.2967 12.0193 17.3187 12.444 17.3187 12.9694V13.9195L16.9001 14.1095C16.1068 14.4783 15.9526 14.7131 15.9526 15.5067V16.0208L16.1289 15.9873C16.9772 15.842 18.3763 15.6408 18.5856 15.6408C18.7289 15.6408 19.3679 15.7302 20.0068 15.8308C20.6458 15.9314 21.1746 16.0208 21.1967 16.0208C21.2077 16.0208 21.2187 15.7749 21.2077 15.462C21.1967 14.9478 21.1856 14.8919 21.0314 14.6684C20.9102 14.4895 20.767 14.3889 20.3594 14.1765L19.8526 13.9083V12.9582C19.8526 12.444 19.8636 12.0193 19.8746 12.0193C19.8856 12.0193 20.6458 12.1869 21.5712 12.3881C22.4857 12.5893 23.345 12.757 23.4662 12.757H23.6865V12.2317C23.6865 11.6504 23.5984 11.3933 23.345 11.1474C23.2568 11.0692 22.6399 10.6556 21.9568 10.2309C21.2738 9.80612 20.5357 9.33667 20.3043 9.20254L19.8857 8.93427L19.8526 6.94467C19.8195 4.69798 19.8195 4.67563 19.434 4.28441C19.2467 4.08322 19.1475 4.02733 18.9162 3.97144C18.5526 3.91555 18.5085 3.91555 18.178 4.00497ZM18.9051 4.888C18.9492 4.93271 18.9712 5.62572 18.9933 7.19058L19.0153 9.42609L20.8331 10.5774C21.8357 11.2033 22.6509 11.7287 22.6399 11.7398C22.6289 11.751 19.7094 11.1251 19.1034 10.9686L18.9823 10.9462V14.4672L19.456 14.6907C19.7204 14.8137 19.9187 14.9254 19.9077 14.9366C19.8967 14.9478 19.5882 14.9143 19.2136 14.8472C18.7582 14.7727 18.3212 14.7727 17.9026 14.8472C17.5611 14.9031 17.2306 14.959 17.1975 14.959C17.1645 14.959 17.3518 14.8472 17.6382 14.7131L18.145 14.4672V10.9574L18.0348 10.9798C17.9687 10.9909 17.1314 11.181 16.184 11.3933C15.2365 11.6057 14.3992 11.7846 14.3441 11.8069C14.289 11.8181 14.7187 11.5386 15.3136 11.1698C15.9085 10.8009 16.7789 10.2644 17.2526 9.97379L18.1229 9.43726L18.145 7.1794C18.156 5.93869 18.178 4.92153 18.189 4.91035C18.2772 4.77622 18.784 4.76505 18.9051 4.888Z" fill="white"/>
<path d="M2.33569 5.94987V7.1794H11.8323V4.72034H2.33569V5.94987ZM11.006 5.94987V6.31873H3.17298V5.58101H10.995L11.006 5.94987Z" fill="white"/>
<path d="M2.33569 9.95133V11.1809H11.8323V8.7218H2.33569V9.95133ZM11.006 9.95133V10.3202H3.17298V9.58247H10.995L11.006 9.95133Z" fill="white"/>
<path d="M2.33569 13.9418V15.1713H7.91027V12.7123H2.33569V13.9418ZM7.06196 13.9418V14.3107H3.17298V13.573H7.05095V13.9418H7.06196Z" fill="white"/>
</g>
<defs>
<clipPath id="clip0_11053_409">
<rect width="26" height="20" fill="white"/>
</clipPath>
</defs>
</svg>
