<svg width="32" height="33" viewBox="0 0 32 33" fill="none" xmlns="http://www.w3.org/2000/svg">
<path d="M10.9443 19.3887H22.0557C23.6321 19.3887 25.144 20.0152 26.2588 21.1299C27.3735 22.2446 27.9999 23.7566 28 25.333C28 26.1729 27.6661 26.9784 27.0723 27.5723C26.4784 28.1661 25.6729 28.5 24.833 28.5H8.16699C7.32714 28.5 6.5216 28.1661 5.92773 27.5723C5.33387 26.9784 5 26.1729 5 25.333C5.00009 23.7566 5.62649 22.2446 6.74121 21.1299C7.85597 20.0152 9.36786 19.3887 10.9443 19.3887ZM16.5 5.5C17.7082 5.5 18.8673 5.97965 19.7217 6.83398C20.576 7.68831 21.0557 8.84748 21.0557 10.0557C21.0556 11.2636 20.5757 12.4221 19.7217 13.2764C18.8673 14.1307 17.7082 14.6113 16.5 14.6113C15.2918 14.6113 14.1327 14.1307 13.2783 13.2764C12.4243 12.4221 11.9444 11.2636 11.9443 10.0557C11.9443 8.84748 12.424 7.68831 13.2783 6.83398C14.1327 5.97965 15.2918 5.5 16.5 5.5Z" stroke="black" stroke-width="2"/>
</svg>
